<svg width="40" height="40" viewBox="0 0 40 40" fill="none" xmlns="http://www.w3.org/2000/svg">
<g clip-path="url(#clip0_11_20827)">
<path d="M1.37939 2.75879H22.069V40.0002H1.37939V2.75879Z" fill="#5AAAE7"/>
<path d="M22.0688 8.27588H37.2413V40H22.0688V8.27588Z" fill="#3D9AE2"/>
<path d="M12.4138 31.7241H7.58618V40H15.862V31.7241H12.4138Z" fill="#E6E7E8"/>
<path d="M39.3103 20.6895H28.2758C27.895 20.6895 27.5862 20.9982 27.5862 21.3791V28.2757C27.5862 28.6565 27.895 28.9653 28.2758 28.9653H30.3448V32.4136L33.7931 28.9653H39.3103C39.6912 28.9653 40 28.6565 40 28.2757V21.3791C40 20.9982 39.6912 20.6895 39.3103 20.6895Z" fill="#FFD422"/>
<path d="M31.0344 17.9312H33.793V20.6898H31.0344V17.9312Z" fill="#E6E7E8"/>
<path d="M25.5173 17.9312H28.276V20.6898H25.5173V17.9312Z" fill="#E6E7E8"/>
<path d="M31.0344 12.4136H33.793V15.1722H31.0344V12.4136Z" fill="#E6E7E8"/>
<path d="M25.5173 12.4136H28.276V15.1722H25.5173V12.4136Z" fill="#E6E7E8"/>
<path d="M15.8621 23.4482H17.931C17.4808 24.0436 17.2383 24.7706 17.2414 25.5172V26.2069H15.8621V23.4482Z" fill="#E6E7E8"/>
<path d="M10.345 23.4482H13.1036V26.2069H10.345V23.4482Z" fill="#E6E7E8"/>
<path d="M4.82764 23.4482H7.58626V26.2069H4.82764V23.4482Z" fill="#E6E7E8"/>
<path d="M15.8621 17.9312H18.6207V20.6898H15.8621V17.9312Z" fill="#E6E7E8"/>
<path d="M10.345 17.9312H13.1036V20.6898H10.345V17.9312Z" fill="#E6E7E8"/>
<path d="M4.82764 17.9312H7.58626V20.6898H4.82764V17.9312Z" fill="#E6E7E8"/>
<path d="M15.8621 12.4136H18.6207V15.1722H15.8621V12.4136Z" fill="#E6E7E8"/>
<path d="M10.345 12.4136H13.1036V15.1722H10.345V12.4136Z" fill="#E6E7E8"/>
<path d="M4.82764 12.4136H7.58626V15.1722H4.82764V12.4136Z" fill="#E6E7E8"/>
<path d="M15.8621 6.89648H18.6207V9.65511H15.8621V6.89648Z" fill="#E6E7E8"/>
<path d="M10.345 6.89648H13.1036V9.65511H10.345V6.89648Z" fill="#E6E7E8"/>
<path d="M4.82764 6.89648H7.58626V9.65511H4.82764V6.89648Z" fill="#E6E7E8"/>
<path d="M23.0692 32.0068L22.0691 32.7584L20.6897 33.7929L18.3103 32.0068L19.3104 31.7239V29.9722C20.1631 30.4689 21.2164 30.4689 22.0691 29.9722V31.7239L23.0692 32.0068Z" fill="#FFDAAA"/>
<path d="M23.4483 0V2.75862H0V0H23.4483Z" fill="#1A6FB0"/>
<path d="M22.3793 25.4415L22.0688 24.8276L21.0411 25.5106C20.3622 25.9658 19.5624 26.2086 18.7448 26.2069H17.9309V27.5863C17.9292 28.5723 18.4552 29.4842 19.3092 29.9768C20.1635 30.4695 21.2162 30.4678 22.0688 29.9724C22.277 29.8519 22.4692 29.7057 22.6413 29.538C23.1569 29.0191 23.4468 28.3177 23.4482 27.5863V26.1931C22.9861 26.1433 22.5824 25.8591 22.3793 25.4415Z" fill="#FFDAAA"/>
<path d="M22.0689 29.9722V30.6618C21.2163 31.1585 20.1629 31.1585 19.3103 30.6618V29.9722C20.1629 30.4689 21.2163 30.4689 22.0689 29.9722Z" fill="#F2CD9D"/>
<path d="M22.0691 22.3517C21.633 22.1655 21.1639 22.0692 20.6898 22.0688C19.6048 22.0699 18.5831 22.5807 17.9311 23.4482C17.4809 24.0435 17.2385 24.7706 17.2415 25.5171V26.2068H18.7451C19.5627 26.2085 20.3624 25.9657 21.0413 25.5104L22.0691 24.8275L22.3796 25.4414C22.5826 25.8589 22.9864 26.1431 23.4484 26.193C23.5029 26.2044 23.5585 26.2091 23.6141 26.2068H24.138V25.5171C24.135 24.1456 23.3238 22.905 22.0691 22.3517Z" fill="#3E3D42"/>
<path d="M24.8965 32.5308L23.069 32.0068L22.0689 32.7585L20.6896 33.7929L18.3101 32.0068L16.4826 32.5308C15.2966 32.8679 14.4793 33.9529 14.4827 35.1861V39.9998H26.8965V35.1861C26.8978 33.9536 26.0816 32.8699 24.8965 32.5308Z" fill="#00CCB3"/>
<path d="M1.37939 2.75879H22.069V4.1381H1.37939V2.75879Z" fill="#3D9AE2"/>
<path d="M16.5518 35.1724H17.9311V39.9999H16.5518V35.1724Z" fill="#00B39D"/>
<path d="M23.4482 35.1724H24.8276V39.9999H23.4482V35.1724Z" fill="#00B39D"/>
<path d="M30.3447 22.7588H37.2413V24.1381H30.3447V22.7588Z" fill="#DDB200"/>
<path d="M30.3447 25.5171H37.2413V26.8964H30.3447V25.5171Z" fill="#DDB200"/>
</g>
<defs>
<clipPath id="clip0_11_20827">
<rect width="40" height="40" fill="white"/>
</clipPath>
</defs>
</svg>
