<svg width="40" height="40" viewBox="0 0 40 40" fill="none" xmlns="http://www.w3.org/2000/svg">
<path d="M33.125 12.5V33.125C33.125 33.4565 32.9933 33.7745 32.7589 34.0089C32.5245 34.2433 32.2065 34.375 31.875 34.375H3.125C2.79378 34.374 2.47642 34.242 2.24221 34.0078C2.008 33.7736 1.87599 33.4562 1.875 33.125V12.5H33.125Z" fill="#FFB655"/>
<path d="M23.125 19.375V34.375H21.875V20.625C21.876 20.2938 22.008 19.9764 22.2422 19.7422C22.4764 19.508 22.7938 19.376 23.125 19.375Z" fill="#FFA733"/>
<path d="M20.625 7.5H33.125V12.5H20.625V7.5Z" fill="#FF9811"/>
<path d="M29.7437 2.43126L33.125 7.50001H1.875L5.25625 2.43126C5.36943 2.25972 5.52354 2.11905 5.70466 2.02194C5.88579 1.92483 6.08824 1.87433 6.29375 1.87501H28.7062C28.9118 1.87433 29.1142 1.92483 29.2953 2.02194C29.4765 2.11905 29.6306 2.25972 29.7437 2.43126Z" fill="#FFB655"/>
<path d="M1.875 7.5H14.375V12.5H1.875V7.5Z" fill="#FF9811"/>
<path d="M20.625 12.5V17.5L17.5 15L14.375 17.5V12.5V7.5H20.625V12.5Z" fill="#E6E7E8"/>
<path d="M38.125 19.375V36.875C38.124 37.2062 37.992 37.5236 37.7578 37.7578C37.5236 37.992 37.2062 38.124 36.875 38.125H24.375C24.0438 38.124 23.7264 37.992 23.4922 37.7578C23.258 37.5236 23.126 37.2062 23.125 36.875V19.375C23.126 19.0438 23.258 18.7264 23.4922 18.4922C23.7264 18.258 24.0438 18.126 24.375 18.125H36.875C37.1076 18.1251 37.3355 18.1901 37.5331 18.3127C37.7307 18.4352 37.8903 18.6105 37.9938 18.8188C38.0818 18.9908 38.1268 19.1817 38.125 19.375Z" fill="#E0E0E2"/>
<path d="M37.9938 18.8188C37.5578 22.9119 36.0937 26.8284 33.7378 30.2039C31.3818 33.5794 28.2105 36.3042 24.5187 38.125H24.375C24.0438 38.124 23.7264 37.992 23.4922 37.7578C23.258 37.5236 23.126 37.2062 23.125 36.875V19.375C23.126 19.0438 23.258 18.7264 23.4922 18.4922C23.7264 18.258 24.0438 18.126 24.375 18.125H36.875C37.1076 18.1251 37.3355 18.1901 37.5331 18.3127C37.7307 18.4352 37.8903 18.6105 37.9938 18.8188Z" fill="#E6E7E8"/>
<path d="M35.625 18.125V21.875L34.375 20.625L33.125 21.875V18.125H35.625Z" fill="#FF5023"/>
<path d="M26.875 27.5C26.7092 27.4999 26.5503 27.4341 26.4331 27.3169L25.1831 26.0669L26.0669 25.1831L26.875 25.9912L28.9331 23.9331L29.8169 24.8169L27.3169 27.3169C27.1997 27.4341 27.0407 27.4999 26.875 27.5Z" fill="#FF5023"/>
<path d="M26.875 34.375C26.7092 34.3749 26.5503 34.3091 26.4331 34.1919L25.1831 32.9419L26.0669 32.0581L26.875 32.8662L28.9331 30.8081L29.8169 31.6919L27.3169 34.1919C27.1997 34.3091 27.0407 34.3749 26.875 34.375Z" fill="#FF5023"/>
<path d="M31.25 26.25H36.25V27.5H31.25V26.25Z" fill="#BCBEC0"/>
<path d="M31.25 33.125H36.25V34.375H31.25V33.125Z" fill="#BCBEC0"/>
<path d="M31.25 30.625H36.25V31.875H31.25V30.625Z" fill="#BCBEC0"/>
<path d="M31.25 23.75H32.5V25H31.25V23.75Z" fill="#BCBEC0"/>
<path d="M33.75 23.75H36.25V25H33.75V23.75Z" fill="#BCBEC0"/>
</svg>
