<svg width="180" height="45" viewBox="0 0 180 45" fill="none" xmlns="http://www.w3.org/2000/svg">
<g opacity="0.8">
<path d="M22.5 24.7772C22.5 29.0252 24.885 33.3002 30.213 33.3002C35.541 33.3002 37.926 29.0252 37.926 24.7772C37.926 21.8792 36.945 18.5402 35.316 15.8492C33.732 13.2482 31.824 11.7002 30.213 11.7002C28.602 11.7002 26.694 13.2482 25.119 15.8492C23.481 18.5492 22.5 21.8792 22.5 24.7772ZM77.274 18.0632H71.874V12.8612H88.461V18.0722H83.061V32.1482H77.274V18.0632ZM100.8 18.0632H109.287V12.8612H100.8C93.006 12.8612 88.839 16.7402 88.839 22.5002C88.839 28.2692 93.006 32.1392 100.8 32.1392H109.287V26.9282H100.8C97.191 26.9282 94.815 25.6412 94.815 22.4912C94.815 19.3502 97.191 18.0632 100.8 18.0632ZM57.015 24.3722L60.102 12.8612H70.326V32.1482H64.539V16.4432L60.336 32.1392H53.703L49.5 16.4522V32.1392H43.713V12.8612H53.937L57.015 24.3722ZM123.696 18.4502H121.653V20.3402H123.696C124.209 20.3402 124.524 20.0702 124.524 19.5842V19.2332C124.515 18.7292 124.254 18.4502 123.696 18.4502ZM124.209 22.5002H118.926V12.8612H126.693V15.1652H121.644V16.4252H124.2C126.342 16.4252 127.377 17.4872 127.377 19.3592C127.386 21.3302 126.351 22.5002 124.209 22.5002ZM133.668 18.5582H131.517L132.597 14.9942L133.668 18.5582ZM137.808 22.5002L134.829 12.8612H130.779L127.8 22.5002H130.347L130.896 20.6552H134.307L134.865 22.5002H137.808ZM144.693 22.5002V18.7652H141.579V22.5002H138.789V12.8612H141.579V16.3982H144.693V12.8612H147.492V22.5002H144.693ZM152.451 16.3892H151.965V12.8612H149.175V22.5002H151.965V18.7652H152.37L154.953 22.5002H158.184L154.692 17.4512L157.905 12.8522H154.953L152.451 16.3892Z" fill="#E30600"/>
</g>
</svg>
