<svg width="180" height="45" viewBox="0 0 180 45" fill="none" xmlns="http://www.w3.org/2000/svg">
<g opacity="0.8">
<path d="M13.5 22.3112C13.5023 18.3042 15.0952 14.4621 17.9285 11.6287C20.7619 8.79539 24.604 7.20258 28.611 7.2002V12.6722C26.6995 12.6758 24.8321 13.2466 23.2452 14.3123C21.6583 15.378 20.4234 16.8906 19.6969 18.6586C18.9704 20.4267 18.7849 22.3706 19.1639 24.2441C19.543 26.1177 20.4695 27.8366 21.8262 29.1831C23.1828 30.5297 24.9087 31.4434 26.785 31.8084C28.6613 32.1735 30.6037 31.9735 32.3662 31.2338C34.1288 30.494 35.6323 29.2479 36.6861 27.6531C37.7399 26.0583 38.2967 24.1867 38.286 22.2752H43.758C43.758 26.2877 42.1641 30.1358 39.3268 32.973C36.4896 35.8102 32.6415 37.4042 28.629 37.4042C24.6165 37.4042 20.7684 35.8102 17.9311 32.973C15.0939 30.1358 13.5 26.2877 13.5 22.2752" fill="#016438"/>
<path d="M33.3001 13.8152C33.3037 13.0566 33.5316 12.3161 33.9553 11.6869C34.3789 11.0577 34.9793 10.568 35.6807 10.2793C36.3822 9.99071 37.1534 9.9161 37.8972 10.065C38.6409 10.2138 39.324 10.5794 39.8604 11.1158C40.3968 11.6522 40.7624 12.3353 40.9113 13.0791C41.0601 13.8228 40.9856 14.594 40.697 15.2955C40.4083 15.997 39.9186 16.5973 39.2893 17.0211C38.6601 17.4447 37.9196 17.6726 37.1611 17.6762C36.6537 17.6773 36.1511 17.5783 35.6821 17.3847C35.2132 17.1911 34.787 16.9068 34.4283 16.5479C34.0696 16.1892 33.7852 15.7631 33.5916 15.2941C33.398 14.8251 33.2989 14.3225 33.3001 13.8152Z" fill="#016438"/>
<path d="M21.9509 22.3112C21.9509 20.9869 22.3437 19.6923 23.0794 18.5912C23.8152 17.4899 24.861 16.6317 26.0845 16.1249C27.308 15.6181 28.6544 15.4855 29.9533 15.7439C31.2522 16.0022 32.4453 16.64 33.3817 17.5764C34.3182 18.5129 34.9559 19.706 35.2143 21.0049C35.4726 22.3038 35.34 23.6502 34.8333 24.8737C34.3265 26.0972 33.4682 27.143 32.3671 27.8787C31.2659 28.6145 29.9713 29.0072 28.6469 29.0072C26.8718 29.0048 25.17 28.2986 23.9148 27.0433C22.6596 25.7881 21.9534 24.0864 21.9509 22.3112Z" fill="#4FAE2E"/>
<path d="M151.389 17.6401L150.93 19.9351C149.823 24.9121 149.4 26.5501 148.5 31.5001L148.266 31.6891L145.242 31.7611L145.089 31.5721L146.313 26.4421L146.655 24.7591H140.184C139.725 26.7481 139.383 28.5481 138.807 31.4911L138.573 31.6801L135.549 31.7521L135.396 31.5631L136.62 26.4331L137.115 24.2191C137.724 21.7481 138.196 19.2452 138.528 16.7221L138.717 16.5331C139.773 16.4089 140.82 16.2317 141.858 16.0021L142.011 16.1911L141.705 17.6851L141.3 19.9711L140.805 22.1491H147.312C147.735 20.2411 147.888 19.2061 148.266 16.7491L148.455 16.5601C149.511 16.4391 150.559 16.2618 151.596 16.0291L151.749 16.2181L151.443 17.6311L151.389 17.6401ZM114.939 24.3001C115.144 23.4598 115.259 22.5999 115.281 21.7351C115.281 18.7111 113.328 18.2161 112.221 18.2161C107.514 18.2161 106.938 25.4791 106.938 26.5951C106.938 28.9711 108.351 30.0421 109.998 30.0421C113.175 30.0421 114.363 26.7571 114.93 24.3091L114.939 24.3001ZM118.026 25.2631C117.378 27.8281 115.542 32.2651 109.926 32.2651C105.948 32.2651 103.77 30.1951 103.77 26.1451C103.774 25.5703 103.812 24.9961 103.887 24.4261C103.892 24.2707 103.917 24.1166 103.959 23.9671C105.03 17.2171 107.937 10.8001 114.363 10.8001C115.62 10.7887 116.874 10.6591 118.107 10.4131L117.684 13.1131C116.315 13.4126 114.918 13.5664 113.517 13.5721C112.974 13.5601 112.435 13.6557 111.93 13.8534C111.425 14.0512 110.964 14.3471 110.574 14.7241C110.285 15.0132 110.029 15.333 109.809 15.6781C109.639 15.9287 109.497 16.1973 109.386 16.4791C110.304 16.1933 111.26 16.0507 112.221 16.0561C116.127 16.0561 118.458 18.2341 118.458 22.0951C118.447 23.1673 118.305 24.2343 118.035 25.2721L118.026 25.2631ZM156.519 22.5001C157.248 21.8881 157.626 21.5101 158.625 20.5471C159.624 19.5841 162.225 16.9471 162.684 16.4161L163.026 16.2271H166.428L166.509 16.4971C166.203 16.7671 166.05 16.8751 164.862 17.8741C164.403 18.2611 164.097 18.5581 163.521 19.0621L159.66 22.6621L164.286 31.4191L164.097 31.6441L160.803 31.7251L160.569 31.5361C159.804 29.7361 159.57 29.2771 158.508 27.0991L156.447 22.8871C155.799 25.7941 155.376 27.6301 154.647 31.4551L154.458 31.6441L151.434 31.7251L151.281 31.5361L152.505 26.4151L152.964 24.2011C153.573 21.7301 154.045 19.2272 154.377 16.7041L154.566 16.5151C155.622 16.3941 156.67 16.2168 157.707 15.9841L157.86 16.1731L157.554 17.6671L157.095 19.9621L156.519 22.5001ZM130.239 27.9001C129.932 28.1878 129.597 28.444 129.24 28.6651C128.452 29.1257 127.553 29.3622 126.639 29.3491C123.939 29.3491 123.156 27.0541 123.156 25.6411C123.197 24.449 123.504 23.2813 124.054 22.2226C124.603 21.1639 125.382 20.2411 126.333 19.5211C127.742 18.6411 129.38 18.2022 131.04 18.2611H132.381L130.239 27.9001ZM135.9 16.2631L135.747 16.0291H131.652C128.898 16.0291 125.073 16.2181 122.283 19.4761C120.819 21.2917 119.984 23.5346 119.907 25.8661C119.907 29.5741 122.391 31.7161 125.415 31.7161C127.008 31.7712 128.562 31.225 129.771 30.1861L129.6 31.3381L129.753 31.5631L132.543 31.4821L132.777 31.2931C133.389 27.6931 133.578 26.6221 134.577 22.0321L135.9 16.2631Z" fill="#4FAE2E"/>
<path d="M57.294 32.1749C54.045 32.1749 49.419 31.1399 51.102 23.6789C51.75 20.8889 53.667 14.9219 61.659 14.9219C69.426 14.9219 68.274 21.2759 67.779 23.5259C66.321 29.8439 62.46 32.1749 57.294 32.1749ZM58.329 28.8449C60.588 28.8449 61.659 26.4689 62.343 23.4449C62.838 21.3029 63.342 18.1709 60.624 18.1709C58.293 18.1709 57.258 20.4299 56.574 23.4449C55.962 26.2889 55.8 28.8539 58.329 28.8539V28.8449ZM76.23 31.7969H71.253L71.1 31.6439C71.406 30.6539 72.099 27.9719 72.819 24.6779C73.431 22.0409 73.926 19.7009 74.16 18.6389C72.9 18.6389 70.983 18.6389 70.029 18.7199L69.876 18.4859C70.11 17.6849 70.488 16.2629 70.677 15.4259L70.947 15.2729C71.784 15.2729 74.961 15.3539 77.49 15.3539C80.586 15.3539 83.574 15.2729 84.222 15.2369L84.456 15.3899C84.222 16.1189 83.808 17.6489 83.619 18.4499L83.313 18.6389H79.371C79.218 19.3229 78.723 21.3389 77.913 24.8759C77.301 27.5759 76.806 29.9969 76.536 31.5719L76.266 31.8419L76.23 31.7969ZM93.6 19.0169H90.963C90.81 19.7009 90.198 22.2659 89.622 24.7589C88.974 27.7019 88.362 30.4199 88.128 31.5629L87.822 31.7519H82.773L82.584 31.5629C82.89 30.3029 83.727 26.7839 84.501 23.3369C85.275 19.8899 85.959 16.4159 86.184 15.4529L86.4 15.2999C88.083 15.2999 89.766 15.3809 93.933 15.3809C97.227 15.3809 100.359 15.2639 102.033 15.2639L102.186 15.4529C101.952 16.2989 101.034 20.3129 100.125 24.2909C99.396 27.5039 98.748 30.7169 98.559 31.5989L98.325 31.7879H93.24L93.087 31.5629C93.357 30.4919 93.987 27.9629 94.653 24.8309C95.184 22.4549 95.724 19.9349 95.949 19.0169H93.537H93.6Z" fill="#016438"/>
</g>
</svg>
