<svg width="13" height="14" viewBox="0 0 13 14" fill="none" xmlns="http://www.w3.org/2000/svg">
<path d="M2.97012 5.45396C2.41812 5.45396 1.91412 5.33396 1.45812 5.09396C1.01412 4.84196 0.660117 4.51196 0.396117 4.10396C0.132117 3.68396 0.00011719 3.22196 0.00011719 2.71796C0.00011719 2.21396 0.132117 1.75796 0.396117 1.34996C0.660117 0.94196 1.01412 0.61796 1.45812 0.37796C1.91412 0.12596 2.41812 -3.95775e-05 2.97012 -3.95775e-05C3.52212 -3.95775e-05 4.02012 0.12596 4.46412 0.37796C4.92012 0.61796 5.28012 0.94196 5.54412 1.34996C5.80812 1.75796 5.94012 2.21396 5.94012 2.71796C5.94012 3.22196 5.80812 3.68396 5.54412 4.10396C5.28012 4.51196 4.92012 4.84196 4.46412 5.09396C4.02012 5.33396 3.52212 5.45396 2.97012 5.45396ZM1.02612 12.114L6.08412 6.19196L10.7641 0.03596L11.8621 1.00796L6.93012 6.83996L2.10612 13.086L1.02612 12.114ZM2.97012 4.24796C3.31812 4.24796 3.61812 4.09796 3.87012 3.79796C4.12212 3.48596 4.24812 3.12596 4.24812 2.71796C4.24812 2.30996 4.12212 1.95596 3.87012 1.65596C3.61812 1.35596 3.31812 1.20596 2.97012 1.20596C2.62212 1.20596 2.32212 1.35596 2.07012 1.65596C1.81812 1.95596 1.69212 2.30996 1.69212 2.71796C1.69212 3.13796 1.81812 3.49796 2.07012 3.79796C2.32212 4.09796 2.62212 4.24796 2.97012 4.24796ZM9.91812 13.14C9.36612 13.14 8.86812 13.02 8.42412 12.78C7.98012 12.528 7.62012 12.198 7.34412 11.79C7.08012 11.382 6.94812 10.926 6.94812 10.422C6.94812 9.91796 7.08012 9.46196 7.34412 9.05396C7.62012 8.63396 7.98012 8.30396 8.42412 8.06396C8.86812 7.81196 9.36612 7.68596 9.91812 7.68596C10.4701 7.68596 10.9681 7.81196 11.4121 8.06396C11.8681 8.30396 12.2281 8.63396 12.4921 9.05396C12.7561 9.46196 12.8881 9.91796 12.8881 10.422C12.8881 10.926 12.7561 11.382 12.4921 11.79C12.2281 12.198 11.8681 12.528 11.4121 12.78C10.9681 13.02 10.4701 13.14 9.91812 13.14ZM9.91812 11.934C10.2781 11.934 10.5781 11.784 10.8181 11.484C11.0701 11.184 11.1961 10.83 11.1961 10.422C11.1961 10.002 11.0701 9.64196 10.8181 9.34196C10.5661 9.04196 10.2661 8.89196 9.91812 8.89196C9.57012 8.89196 9.27012 9.04796 9.01812 9.35996C8.76612 9.65996 8.64012 10.014 8.64012 10.422C8.64012 10.83 8.76612 11.184 9.01812 11.484C9.27012 11.784 9.57012 11.934 9.91812 11.934Z" fill="white"/>
</svg>
