<svg width="40" height="40" viewBox="0 0 40 40" fill="none" xmlns="http://www.w3.org/2000/svg">
<path d="M19.375 10.625V22.6062C19.3749 22.7712 19.3423 22.9344 19.279 23.0867C19.2158 23.239 19.1231 23.3773 19.0063 23.4937L18.4937 24.0063C18.3769 24.1227 18.2842 24.261 18.221 24.4133C18.1577 24.5656 18.1251 24.7288 18.125 24.8938V36.875C18.124 37.2062 17.992 37.5236 17.7578 37.7578C17.5236 37.992 17.2062 38.124 16.875 38.125H5.625C5.29378 38.124 4.97642 37.992 4.74221 37.7578C4.508 37.5236 4.37599 37.2062 4.375 36.875V24.8938C4.37493 24.7288 4.34232 24.5656 4.27904 24.4133C4.21576 24.261 4.12306 24.1227 4.00625 24.0063L3.49375 23.4937C3.37694 23.3773 3.28424 23.239 3.22096 23.0867C3.15768 22.9344 3.12507 22.7712 3.125 22.6062V10.625C3.12599 10.2938 3.258 9.97642 3.49221 9.74221C3.72642 9.508 4.04378 9.37599 4.375 9.375H5.625V11.25C5.625 11.4158 5.69085 11.5747 5.80806 11.6919C5.92527 11.8092 6.08424 11.875 6.25 11.875H16.25C16.4158 11.875 16.5747 11.8092 16.6919 11.6919C16.8092 11.5747 16.875 11.4158 16.875 11.25V9.375H18.125C18.4562 9.37599 18.7736 9.508 19.0078 9.74221C19.242 9.97642 19.374 10.2938 19.375 10.625Z" fill="#5AAAE7"/>
<path d="M24.375 8.75C24.375 9.24728 24.1775 9.72419 23.8258 10.0758C23.4742 10.4275 22.9973 10.625 22.5 10.625C22.0027 10.625 21.5258 10.4275 21.1742 10.0758C20.8225 9.72419 20.625 9.24728 20.625 8.75V8.125H23.75C23.9158 8.125 24.0747 8.19085 24.1919 8.30806C24.3092 8.42527 24.375 8.58424 24.375 8.75Z" fill="#E6E7E8"/>
<path d="M20.625 8.75C20.625 9.24728 20.8225 9.72419 21.1742 10.0758C21.5258 10.4275 22.0027 10.625 22.5 10.625H19.375C19.374 10.2938 19.242 9.97642 19.0078 9.74221C18.7736 9.508 18.4562 9.37599 18.125 9.375H14.375V5.625C14.375 4.96196 14.6384 4.32607 15.1072 3.85723C15.5761 3.38839 16.212 3.125 16.875 3.125H18.125C18.788 3.125 19.4239 3.38839 19.8928 3.85723C20.3616 4.32607 20.625 4.96196 20.625 5.625V8.75Z" fill="#D8D7DA"/>
<path d="M8.125 9.375V11.875H6.25C6.08424 11.875 5.92527 11.8092 5.80806 11.6919C5.69085 11.5747 5.625 11.4158 5.625 11.25V9.375H8.125Z" fill="#3D9AE2"/>
<path d="M16.875 9.375V11.25C16.875 11.4158 16.8092 11.5747 16.6919 11.6919C16.5747 11.8092 16.4158 11.875 16.25 11.875H14.375V9.375H16.875Z" fill="#3D9AE2"/>
<path d="M16.25 14.375H6.25C5.90482 14.375 5.625 14.6548 5.625 15V17.5C5.625 17.8452 5.90482 18.125 6.25 18.125H16.25C16.5952 18.125 16.875 17.8452 16.875 17.5V15C16.875 14.6548 16.5952 14.375 16.25 14.375Z" fill="#3D9AE2"/>
<path d="M10.625 3.125H16.875C16.212 3.125 15.5761 3.38839 15.1072 3.85723C14.6384 4.32607 14.375 4.96196 14.375 5.625V11.875H8.125V5.625C8.125 4.96196 8.38839 4.32607 8.85723 3.85723C9.32607 3.38839 9.96196 3.125 10.625 3.125Z" fill="#E6E7E8"/>
<path d="M4.37502 26.875V35.625L2.21877 34.55C2.11474 34.4976 2.02744 34.4171 1.9667 34.3178C1.90596 34.2184 1.8742 34.104 1.87502 33.9875V28.5125C1.8742 28.396 1.90596 28.2816 1.9667 28.1822C2.02744 28.0829 2.11474 28.0024 2.21877 27.95L4.37502 26.875Z" fill="#C6C5CA"/>
<path d="M20.625 30.625H28.125V34.375C28.124 34.7062 27.992 35.0236 27.7578 35.2578C27.5236 35.492 27.2062 35.624 26.875 35.625H20.625V30.625Z" fill="#3D9AE2"/>
<path d="M20.625 35.625V36.25C20.625 36.4158 20.5592 36.5747 20.4419 36.6919C20.3247 36.8092 20.1658 36.875 20 36.875H18.125V26.875H20C20.1658 26.875 20.3247 26.9408 20.4419 27.0581C20.5592 27.1753 20.625 27.3342 20.625 27.5V35.625Z" fill="#ACABB1"/>
<path d="M22.5 28.125H26.875C27.2062 28.126 27.5236 28.258 27.7578 28.4922C27.992 28.7264 28.124 29.0438 28.125 29.375V30.625H20.625V28.125H22.5Z" fill="#D8D7DA"/>
<path d="M38.1251 31.2499V32.4999C38.1251 32.6657 38.0592 32.8247 37.942 32.9419C37.8248 33.0591 37.6659 33.1249 37.5001 33.1249H33.1251V33.6624C33.1253 33.7813 33.0916 33.8978 33.0279 33.9981C32.9643 34.0985 32.8733 34.1787 32.7657 34.2292C32.6581 34.2797 32.5384 34.2985 32.4205 34.2834C32.3026 34.2682 32.1914 34.2198 32.1001 34.1437L29.9501 32.3562C29.8793 32.2975 29.8224 32.224 29.7833 32.1408C29.7442 32.0576 29.7239 31.9669 29.7239 31.8749C29.7239 31.783 29.7442 31.6922 29.7833 31.6091C29.8224 31.5259 29.8793 31.4523 29.9501 31.3937L32.1001 29.6062C32.1914 29.5301 32.3026 29.4817 32.4205 29.4665C32.5384 29.4514 32.6581 29.4702 32.7657 29.5207C32.8733 29.5712 32.9643 29.6514 33.0279 29.7517C33.0916 29.8521 33.1253 29.9686 33.1251 30.0874V30.6249H37.5001C37.6659 30.6249 37.8248 30.6908 37.942 30.808C38.0592 30.9252 38.1251 31.0842 38.1251 31.2499Z" fill="#3D9AE2"/>
<path d="M20.625 28.125H21.875V30.625H20.625V28.125Z" fill="#C6C5CA"/>
<path d="M20.625 30.625H21.875V35.625H20.625V30.625Z" fill="#1E81CE"/>
<path d="M14.375 9.375H15.625V11.875H14.375V9.375Z" fill="#1E81CE"/>
<path d="M10 25.625H11.25V26.875H10V25.625Z" fill="#1E81CE"/>
<path d="M10 28.125H11.25V29.375H10V28.125Z" fill="#1E81CE"/>
<path d="M10 30.625H11.25V31.875H10V30.625Z" fill="#1E81CE"/>
<path d="M12.5 30.625H13.75V31.875H12.5V30.625Z" fill="#1E81CE"/>
<path d="M12.5 28.125H13.75V29.375H12.5V28.125Z" fill="#1E81CE"/>
<path d="M12.5 25.625H13.75V26.875H12.5V25.625Z" fill="#1E81CE"/>
<path d="M15 25.625H16.25V26.875H15V25.625Z" fill="#1E81CE"/>
<path d="M15 28.125H16.25V29.375H15V28.125Z" fill="#1E81CE"/>
<path d="M15 30.625H16.25V31.875H15V30.625Z" fill="#1E81CE"/>
<path d="M25 32.5H26.25V33.75H25V32.5Z" fill="#1E81CE"/>
<path d="M22.5 32.5H23.75V33.75H22.5V32.5Z" fill="#1E81CE"/>
<path d="M15 36.25H13.125V35H15V33.125H16.25V35C16.25 35.3315 16.1183 35.6495 15.8839 35.8839C15.6495 36.1183 15.3315 36.25 15 36.25Z" fill="#1E81CE"/>
<path d="M6.25 25.625H8.75V26.875H6.25V25.625Z" fill="#1E81CE"/>
<path d="M6.25 23.125H8.75V24.375H6.25V23.125Z" fill="#1E81CE"/>
<path d="M10 23.125H12.5V24.375H10V23.125Z" fill="#1E81CE"/>
<path d="M13.75 23.125H16.25V24.375H13.75V23.125Z" fill="#1E81CE"/>
<path d="M13.75 20.625H16.25V21.875H13.75V20.625Z" fill="#1E81CE"/>
<path d="M10.625 6.875H13.125V8.125H10.625V6.875Z" fill="#C6C5CA"/>
<path d="M9.375 4.375H11.875V5.625H9.375V4.375Z" fill="#C6C5CA"/>
<path d="M10 20.625H12.5V21.875H10V20.625Z" fill="#1E81CE"/>
<path d="M6.25 20.625H8.75V21.875H6.25V20.625Z" fill="#1E81CE"/>
<path d="M6.25 28.125H8.75V29.375H6.25V28.125Z" fill="#1E81CE"/>
<path d="M6.25 30.625H8.75V31.875H6.25V30.625Z" fill="#1E81CE"/>
<path d="M6.25 33.125H8.75V34.375H6.25V33.125Z" fill="#1E81CE"/>
</svg>
