<svg width="40" height="40" viewBox="0 0 40 40" fill="none" xmlns="http://www.w3.org/2000/svg">
<g clip-path="url(#clip0_11_20510)">
<path d="M18.2161 10.5991H8.84106C8.51739 10.5991 8.25513 10.8615 8.25513 11.1851C8.25513 11.5087 8.51739 11.771 8.84106 11.771H18.2161C18.5397 11.771 18.802 11.5087 18.802 11.1851C18.802 10.8615 18.5397 10.5991 18.2161 10.5991Z" fill="#FC647D"/>
<path d="M11.2929 25.6818C9.94453 25.4356 8.65641 24.9695 7.46406 24.2966C7.24219 24.1712 6.96477 24.2038 6.77781 24.377C5.72797 25.3498 4.36133 25.8855 2.92969 25.8855C2.66609 25.8855 2.405 25.8676 2.14734 25.832C3.28141 25.041 4.16305 23.9155 4.65148 22.6005C4.72898 22.3918 4.68148 22.1571 4.52891 21.995C2.36406 19.6945 1.17188 16.6879 1.17188 13.5287C1.17188 6.71508 6.71508 1.17188 13.5287 1.17188C19.5001 1.17188 24.6117 5.42836 25.6832 11.2929C25.7413 11.6112 26.047 11.8221 26.3649 11.764C26.6833 11.7058 26.8941 11.4006 26.836 11.0823C25.6627 4.66078 20.0662 0 13.5287 0C6.06898 0 0 6.06891 0 13.5287C0 16.8611 1.21172 20.0387 3.41984 22.5188C2.82578 23.8557 1.72906 24.9216 0.366016 25.4734C0.144844 25.563 0 25.7779 0 26.0166C0 26.2553 0.144844 26.4702 0.366094 26.5597C1.18164 26.8898 2.04414 27.0573 2.92969 27.0573C4.51523 27.0573 6.03477 26.5128 7.25352 25.5159C8.45609 26.1468 9.74211 26.5899 11.0825 26.8345C11.4005 26.8927 11.7059 26.6817 11.7641 26.3634C11.8222 26.0451 11.6112 25.7398 11.2929 25.6818Z" fill="#FC647D"/>
<path d="M8.84106 15.2866C8.51739 15.2866 8.25513 15.549 8.25513 15.8726C8.25513 16.1962 8.51739 16.4585 8.84106 16.4585H15.467C15.7907 16.4585 16.0529 16.1962 16.0529 15.8726C16.0529 15.549 15.7907 15.2866 15.467 15.2866H8.84106Z" fill="#FC647D"/>
<path d="M18.802 13.5288C18.802 13.2052 18.5397 12.9429 18.2161 12.9429H8.84106C8.51739 12.9429 8.25513 13.2052 8.25513 13.5288C8.25513 13.8524 8.51739 14.1147 8.84106 14.1147H18.2161C18.5397 14.1147 18.802 13.8524 18.802 13.5288Z" fill="#FC647D"/>
<path d="M29.4009 20.6626C28.3212 20.6626 27.2997 21.0242 26.4712 21.691C25.6428 21.0243 24.6213 20.6626 23.5415 20.6626C20.9568 20.6626 18.854 22.7654 18.854 25.3501C18.854 27.7809 20.1404 30.1693 22.574 32.2571C24.3724 33.7999 26.1491 34.6355 26.2238 34.6703C26.3022 34.7068 26.3867 34.7251 26.4712 34.7251C26.5557 34.7251 26.6402 34.7068 26.7186 34.6703C26.7933 34.6355 28.57 33.7999 30.3684 32.2571C32.802 30.1693 34.0884 27.7809 34.0884 25.3501C34.0884 22.7654 31.9856 20.6626 29.4009 20.6626ZM26.4712 33.4834C25.2596 32.851 20.0259 29.8571 20.0259 25.3501C20.0259 23.4116 21.603 21.8345 23.5415 21.8345C24.4936 21.8345 25.3854 22.2096 26.0527 22.8908C26.1628 23.0033 26.3137 23.0667 26.4712 23.0667C26.6287 23.0667 26.7796 23.0033 26.8897 22.8909C27.5571 22.2097 28.4489 21.8346 29.4009 21.8346C31.3394 21.8346 32.9165 23.4117 32.9165 25.3502C32.9165 29.8574 27.6821 32.8514 26.4712 33.4834Z" fill="#FC647D"/>
<path d="M39.634 38.4164C38.2711 37.8646 37.1743 36.7987 36.5801 35.4618C38.7884 32.9816 40.0001 29.804 40.0001 26.4715C40.0001 19.0119 33.9312 12.9429 26.4715 12.9429C19.0118 12.9429 12.9429 19.0119 12.9429 26.4715C12.9429 33.9312 19.0118 40.0002 26.4715 40.0002C28.6594 40.0002 30.8199 39.4683 32.7465 38.4588C33.9654 39.4558 35.4849 40.0002 37.0705 40.0002C37.956 40.0002 38.8186 39.8328 39.634 39.5026C39.8553 39.413 40.0001 39.1982 40.0001 38.9594C40.0001 38.7208 39.8553 38.5059 39.634 38.4164ZM37.0705 38.8283C35.6389 38.8283 34.2722 38.2926 33.2222 37.3199C33.1112 37.217 32.9683 37.1637 32.8239 37.1637C32.7253 37.1637 32.6261 37.1886 32.536 37.2394C30.6946 38.2789 28.5975 38.8283 26.4715 38.8283C19.6579 38.8283 14.1147 33.2851 14.1147 26.4715C14.1147 19.6579 19.6579 14.1147 26.4715 14.1147C33.2851 14.1148 38.8283 19.658 38.8283 26.4715C38.8283 29.6308 37.636 32.6375 35.4712 34.9378C35.3186 35.1 35.271 35.3347 35.3487 35.5433C35.8371 36.8584 36.7187 37.9839 37.8528 38.7748C37.5951 38.8104 37.334 38.8283 37.0705 38.8283Z" fill="#FC647D"/>
</g>
<defs>
<clipPath id="clip0_11_20510">
<rect width="40" height="40" fill="white"/>
</clipPath>
</defs>
</svg>
