<svg width="180" height="45" viewBox="0 0 180 45" fill="none" xmlns="http://www.w3.org/2000/svg">
<g opacity="0.8" clip-path="url(#clip0_11_21001)">
<path d="M89.0618 28.4761H91.3941C92.5848 28.4761 93.4245 29.086 93.4245 30.1639C93.4245 30.7738 93.1302 31.2981 92.6298 31.5656V31.5843C93.3498 31.7956 93.6918 32.4616 93.6918 33.125C93.6918 34.4357 92.6406 35.0242 91.4319 35.0242H89.0618V28.4761ZM91.4022 31.151C91.9188 31.151 92.2131 30.7819 92.2131 30.3111C92.2131 29.8403 91.9269 29.5005 91.3833 29.5005H90.2493V31.151H91.4022ZM91.5228 34.0023C92.1321 34.0023 92.4723 33.6065 92.4723 33.0528C92.4723 32.5098 92.1222 32.1113 91.5228 32.1113H90.2493V34.0023H91.5228ZM96.9552 30.2121C97.5915 30.2121 98.3115 30.4234 98.7633 30.9129L98.2368 31.7154C97.9425 31.4211 97.4799 31.2071 97.0191 31.2071C96.1524 31.2071 95.5881 31.8625 95.5881 32.6649C95.5881 33.4594 96.1497 34.1415 97.0542 34.1415C97.5519 34.1415 98.0865 33.882 98.4375 33.5423L98.8893 34.3715C98.4456 34.8422 97.7094 35.1365 96.9525 35.1365C95.3928 35.1365 94.3983 34.0398 94.3983 32.673C94.401 31.3356 95.3982 30.2121 96.9552 30.2121ZM101.716 30.2121C103.062 30.2121 103.801 31.1991 103.801 32.4429C103.801 32.5901 103.782 32.7478 103.763 32.895H100.526C100.601 33.7161 101.227 34.1415 101.939 34.1415C102.417 34.1415 102.907 33.9302 103.284 33.6252L103.744 34.4651C103.265 34.8904 102.527 35.1391 101.853 35.1391C100.293 35.1391 99.3168 34.0131 99.3168 32.6757C99.3195 31.2258 100.307 30.2121 101.716 30.2121ZM100.371 28.4761H101.275V29.5461H100.371V28.4761ZM102.632 32.0925C102.623 31.4639 102.217 31.0975 101.69 31.0975C101.091 31.0975 100.665 31.4933 100.555 32.0925H102.632ZM102.067 28.4761H102.963V29.5461H102.067V28.4761ZM107.087 30.3218H111.378V35.0268H110.207V31.3194H108.259V35.0268H107.087V30.3218ZM112.624 30.3218H113.694V30.6722C113.694 30.8487 113.675 31.0038 113.675 31.0038H113.694C113.999 30.4956 114.572 30.2094 115.208 30.2094C116.482 30.2094 117.293 31.2151 117.293 32.673C117.293 34.1682 116.38 35.1365 115.142 35.1365C114.607 35.1365 114.117 34.8958 113.785 34.4731H113.766C113.766 34.4731 113.793 34.639 113.793 34.8798V36.8724H112.622V30.3218H112.624ZM114.93 34.1495C115.575 34.1495 116.11 33.6225 116.11 32.6917C116.11 31.7982 115.631 31.2151 114.946 31.2151C114.329 31.2151 113.756 31.6592 113.756 32.6997C113.759 33.4299 114.165 34.1495 114.93 34.1495ZM120.559 30.2121C121.998 30.2121 123.15 31.2366 123.15 32.6757C123.15 34.1228 121.998 35.1391 120.566 35.1391C119.135 35.1391 117.982 34.1254 117.982 32.6757C117.985 31.2339 119.138 30.2121 120.559 30.2121ZM120.566 34.1415C121.331 34.1415 121.968 33.5503 121.968 32.6757C121.968 31.809 121.331 31.2098 120.566 31.2098C119.801 31.2098 119.173 31.809 119.173 32.6757C119.175 33.5503 119.801 34.1415 120.566 34.1415ZM124.092 30.3218H125.207V34.0291H126.673V30.3218H127.788V34.0291H129.254V30.3218H130.37V34.0291H131.033V36.1316H129.982V35.0242H124.087V30.3218H124.092ZM133.941 30.2121C135.286 30.2121 136.024 31.1991 136.024 32.4429C136.024 32.5901 136.005 32.7478 135.986 32.895H132.75C132.825 33.7161 133.451 34.1415 134.162 34.1415C134.641 34.1415 135.131 33.9302 135.508 33.6252L135.968 34.4651C135.49 34.8904 134.751 35.1391 134.077 35.1391C132.518 35.1391 131.541 34.0131 131.541 32.6757C131.541 31.2258 132.529 30.2121 133.941 30.2121ZM134.852 32.0925C134.844 31.4639 134.438 31.0975 133.911 31.0975C133.312 31.0975 132.887 31.4933 132.777 32.0925H134.852Z" fill="#2D3540"/>
<path d="M109.198 9.69607V23.2122C109.198 23.4154 109.035 23.5786 108.832 23.5786H106.071C105.868 23.5786 105.705 23.4154 105.705 23.2122V9.69607C105.705 9.49285 105.868 9.32968 106.071 9.32968H108.832C109.035 9.32968 109.198 9.49285 109.198 9.69607ZM130.712 9.32968H127.623C127.462 9.32968 127.318 9.43399 127.272 9.58645L124.827 17.5736L122.142 9.57844C122.09 9.42859 121.952 9.32968 121.794 9.32968H119.638C119.48 9.32968 119.338 9.43129 119.291 9.57844L116.605 17.5736L114.16 9.58645C114.112 9.43399 113.97 9.32968 113.81 9.32968H110.72C110.602 9.32968 110.49 9.38584 110.423 9.48214C110.354 9.57574 110.335 9.69877 110.373 9.81109L114.909 23.3325C114.96 23.4823 115.098 23.5813 115.257 23.5813H117.709C117.868 23.5813 118.009 23.4797 118.058 23.3325L120.719 15.4337L123.38 23.3325C123.431 23.4823 123.57 23.5813 123.728 23.5813H126.181C126.339 23.5813 126.481 23.4797 126.528 23.3325L131.065 9.81109C131.102 9.70147 131.084 9.57844 131.014 9.48214C130.942 9.38584 130.829 9.32968 130.712 9.32968ZM135.358 9.32968H132.598C132.395 9.32968 132.232 9.49285 132.232 9.69607V23.2122C132.232 23.4154 132.395 23.5786 132.598 23.5786H135.358C135.562 23.5786 135.725 23.4154 135.725 23.2122V9.69607C135.725 9.49285 135.562 9.32968 135.358 9.32968ZM104.105 23.1159C104.266 23.2951 104.135 23.5813 103.892 23.5813H100.508C100.371 23.5813 100.24 23.5198 100.152 23.4128L99.5797 22.7227C98.4106 23.4797 97.0192 23.921 95.527 23.921C91.4077 23.921 88.0587 20.5694 88.0587 16.4528C88.0587 12.3362 91.4104 8.98458 95.527 8.98458C99.6463 8.98458 102.995 12.3362 102.995 16.4528C102.995 17.9374 102.559 19.3202 101.807 20.4838L104.105 23.1159ZM97.399 20.1039L95.9176 18.3225C95.7619 18.1353 95.896 17.8518 96.1372 17.8518H99.2368C99.3844 17.413 99.4672 16.9423 99.4672 16.4554C99.4672 14.222 97.8058 12.2988 95.5243 12.2988C93.2428 12.2988 91.5814 14.2246 91.5814 16.4554C91.5814 18.6863 93.2428 20.5854 95.5243 20.5854C96.22 20.5854 96.8509 20.4089 97.399 20.1039ZM76.9607 31.4534C77.0811 32.2612 76.827 32.5956 76.5702 32.5956C76.292 32.5956 75.9389 32.2692 75.527 31.6219C75.1177 30.9853 74.9706 30.255 75.1712 29.8832C75.305 29.6398 75.5859 29.5329 75.939 29.6666C76.621 29.9261 76.8885 30.9719 76.9607 31.4534ZM73.1812 33.2134C73.9996 33.9062 74.2484 34.7301 73.815 35.3105C73.5744 35.6288 73.1838 35.8053 72.7157 35.8053C72.2556 35.8053 71.7875 35.6342 71.4639 35.3507C70.7203 34.7007 70.501 33.6441 70.9878 33.0449C71.1777 32.8095 71.4853 32.6812 71.8571 32.6812C72.3065 32.6812 72.7773 32.8711 73.1812 33.2134ZM71.8116 39.8979C75.3397 39.8979 79.1674 41.107 83.4044 44.8625C83.8297 45.2396 84.3942 44.7715 84.025 44.3034C79.8602 39.0446 76.0084 38.0443 72.1674 37.199C67.4703 36.1638 65.0523 33.521 63.3671 30.6161C63.0328 30.0384 62.8829 30.14 62.8509 30.8836C62.8134 31.7904 62.8776 32.9941 63.0809 34.1737C62.8909 34.1817 62.701 34.179 62.5084 34.179C55.7865 34.179 50.3379 28.7303 50.3379 22.0084C50.3379 15.2865 55.7865 9.83791 62.5084 9.83791C69.2303 9.83791 74.679 15.2865 74.679 22.0084C74.679 22.4872 74.655 22.9607 74.6015 23.4235C73.7134 23.2629 71.9641 23.2442 70.7363 23.3512C70.2735 23.3914 70.3404 23.6054 70.6882 23.6696C74.7112 24.3971 77.4743 26.8901 78.1082 31.4132C78.1216 31.5176 78.258 31.5497 78.3115 31.4587C79.9673 28.6956 80.9169 25.4643 80.9169 22.0084C80.9222 11.844 72.6783 3.6001 62.5111 3.6001C52.344 3.6001 44.1001 11.844 44.1001 22.0111C44.1001 32.1782 52.344 40.4222 62.5111 40.4222C65.2074 40.4222 67.8849 39.8979 71.8116 39.8979Z" fill="#FF8C00"/>
</g>
<defs>
<clipPath id="clip0_11_21001">
<rect width="180" height="45" fill="white"/>
</clipPath>
</defs>
</svg>
