<svg width="180" height="45" viewBox="0 0 180 45" fill="none" xmlns="http://www.w3.org/2000/svg">
<g opacity="0.8">
<path d="M21.708 8.20801H49.959V36.459H21.708V8.20801Z" fill="#FFED00"/>
<path d="M84.1769 25.3712L83.4479 29.8712H87.8399L88.5689 25.3712H91.7999L89.8199 37.4762H86.6159L87.4529 32.2832H83.0609L82.2239 37.4762H78.9839L80.9999 25.3712H84.2129H84.1769ZM96.9749 25.3712H93.5999L91.5749 37.4762H94.8869L95.7869 32.2472L99.2069 37.5122H103.5L98.9999 31.1312L105.03 25.4072H100.98L96.1289 30.3932L96.9749 25.3712ZM74.0249 32.9402L73.3229 29.0702L71.2979 32.9402H74.0249ZM74.5109 35.3432H69.9389L68.7239 37.4402H65.1959L72.0989 25.3352H75.6989L78.4889 37.4402H74.9699L74.5109 35.3432ZM65.8259 33.8042C65.7308 34.6175 65.392 35.383 64.8539 36.0002C63.5669 37.3232 61.6139 37.3952 60.3539 37.4312H55.5029L57.5999 25.3712H65.8619L65.4749 27.7382H60.4619L60.0749 30.1412H61.5059C62.7258 30.0561 63.9367 30.4034 64.9259 31.1222C65.2976 31.4552 65.5762 31.8794 65.734 32.3529C65.8918 32.8263 65.9235 33.3328 65.8259 33.8222V33.8042ZM60.5969 32.4002H59.6969L59.2469 34.9832H60.0839C61.9649 34.9832 62.3519 34.4612 62.4599 33.7592C62.5679 33.0572 62.4599 32.4002 60.5789 32.4002H60.5969ZM144.279 14.1572H147.627C147.55 13.7835 147.343 13.449 147.044 13.2134C146.744 12.9777 146.371 12.8561 145.989 12.8702C145.594 12.8299 145.199 12.94 144.882 13.1786C144.565 13.4172 144.349 13.7667 144.279 14.1572ZM150.3 15.5342V15.8492H144.234C144.205 16.0926 144.231 16.3393 144.312 16.5708C144.392 16.8024 144.524 17.0128 144.697 17.1861C144.87 17.3593 145.081 17.4911 145.312 17.5713C145.543 17.6515 145.791 17.6782 146.034 17.6492C146.311 17.6728 146.589 17.6124 146.831 17.4759C147.073 17.3395 147.27 17.1333 147.393 16.8842H150.183C149.733 18.8372 147.915 19.7102 146.07 19.7102C143.37 19.7102 141.363 18.1802 141.363 15.3182C141.329 14.7232 141.422 14.1278 141.638 13.5721C141.853 13.0164 142.186 12.5135 142.612 12.0973C143.039 11.6809 143.55 11.361 144.111 11.159C144.671 10.957 145.269 10.8776 145.863 10.9262C148.689 10.9262 150.291 12.7262 150.291 15.5342H150.3ZM70.2899 13.3382C70.0422 13.3257 69.7947 13.3646 69.5627 13.4522C69.3307 13.54 69.1194 13.6746 68.9419 13.8479C68.7644 14.0211 68.6248 14.2291 68.5314 14.459C68.4382 14.6887 68.3934 14.9352 68.3999 15.1832C68.3937 15.4272 68.4373 15.6698 68.5277 15.8965C68.6183 16.1232 68.754 16.329 68.9265 16.5016C69.0991 16.6741 69.305 16.8099 69.5316 16.9003C69.7583 16.9908 70.0009 17.0344 70.2449 17.0282C70.4914 17.044 70.7383 17.0072 70.9693 16.9201C71.2004 16.833 71.4102 16.6976 71.5848 16.523C71.7594 16.3484 71.8947 16.1386 71.9818 15.9076C72.069 15.6766 72.1058 15.4296 72.0899 15.1832C72.0961 14.9392 72.0526 14.6966 71.962 14.4699C71.8715 14.2432 71.7359 14.0374 71.5633 13.8648C71.3907 13.6923 71.1849 13.5565 70.9582 13.4661C70.7316 13.3755 70.4889 13.332 70.2449 13.3382H70.2899ZM74.8799 11.0702V19.3052H71.9999V18.4052C71.7274 18.7937 71.3607 19.1067 70.934 19.3145C70.5073 19.5223 70.0349 19.6182 69.5609 19.5932C69.0027 19.5795 68.4528 19.4541 67.9436 19.2246C67.4345 18.9951 66.9765 18.6659 66.5965 18.2567C66.2166 17.8474 65.9224 17.3661 65.7313 16.8414C65.5403 16.3167 65.4561 15.7589 65.4839 15.2012C65.4537 14.6454 65.5349 14.0891 65.7227 13.5651C65.9105 13.041 66.2012 12.5599 66.5777 12.1498C66.9543 11.7398 67.4089 11.4091 67.915 11.1774C68.4212 10.9456 68.9686 10.8174 69.5249 10.8002C69.9903 10.7893 70.4526 10.8794 70.8799 11.0643C71.3071 11.2492 71.6893 11.5244 71.9999 11.8712V11.0702H74.8799ZM117.045 13.3382C116.801 13.332 116.558 13.3755 116.331 13.4661C116.105 13.5565 115.899 13.6923 115.726 13.8648C115.554 14.0374 115.419 14.2432 115.328 14.4699C115.237 14.6966 115.194 14.9392 115.2 15.1832C115.194 15.4272 115.237 15.6698 115.328 15.8965C115.419 16.1232 115.554 16.329 115.726 16.5016C115.899 16.6741 116.105 16.8099 116.331 16.9003C116.558 16.9908 116.801 17.0344 117.045 17.0282C117.292 17.044 117.538 17.0072 117.769 16.9201C118.001 16.833 118.21 16.6976 118.385 16.523C118.56 16.3484 118.695 16.1386 118.782 15.9076C118.869 15.6766 118.906 15.4296 118.89 15.1832C118.896 14.9392 118.853 14.6966 118.762 14.4699C118.671 14.2432 118.536 14.0374 118.363 13.8648C118.191 13.6923 117.985 13.5565 117.759 13.4661C117.532 13.3755 117.289 13.332 117.045 13.3382ZM121.653 11.0702V19.3052H118.8V18.4052C118.527 18.7937 118.161 19.1067 117.734 19.3145C117.308 19.5223 116.835 19.6182 116.361 19.5932C115.803 19.5795 115.253 19.4541 114.744 19.2246C114.234 18.9951 113.776 18.6659 113.396 18.2567C113.017 17.8474 112.722 17.3661 112.531 16.8414C112.341 16.3167 112.256 15.7589 112.284 15.2012C112.255 14.6454 112.337 14.0893 112.526 13.5657C112.715 13.0422 113.007 12.5617 113.385 12.1525C113.762 11.7433 114.217 11.4137 114.724 11.1831C115.23 10.9523 115.778 10.8252 116.334 10.8092C116.806 10.7942 117.275 10.8831 117.71 11.0697C118.144 11.2563 118.531 11.5361 118.845 11.8892V11.0702H121.653ZM55.9529 19.3052V7.2002H60.8399C64.1159 7.2002 65.0609 9.5402 65.0609 11.1782C65.0838 11.7294 64.9885 12.279 64.7816 12.7903C64.5747 13.3016 64.2608 13.7627 63.8611 14.1429C63.4614 14.523 62.9851 14.8132 62.464 14.9942C61.9429 15.1752 61.3892 15.2427 60.8399 15.1922H59.0399V19.3052H55.9529ZM59.0579 9.8192V12.6002H60.1019C61.5329 12.6002 61.6679 11.7002 61.6679 11.2412C61.6679 10.7822 61.4609 9.8822 60.1019 9.8822H59.2019L59.0939 9.8192H59.0579ZM76.7069 11.0792V19.3142H79.4969L82.3589 14.8142V19.3142H85.2569V11.0702H82.4669L79.6049 15.4982V11.0702L76.7069 11.0792ZM81.2069 10.0352C81.8859 10.0898 82.565 9.93314 83.1516 9.58682C83.738 9.24041 84.203 8.72115 84.4829 8.1002L82.6019 7.3982C82.5321 7.70026 82.357 7.96758 82.1079 8.15229C81.8589 8.33699 81.5523 8.42699 81.2429 8.4062C80.9328 8.43078 80.6244 8.34222 80.3745 8.15691C80.1247 7.9716 79.9504 7.70207 79.8839 7.3982L78.0029 8.1002C78.2865 8.7093 78.7478 9.21836 79.326 9.56045C79.9043 9.90263 80.5725 10.0618 81.2429 10.0172L81.2069 10.0352ZM91.2149 22.8872V19.4402C89.5049 19.4402 86.6429 18.7382 86.6429 15.1832C86.6429 11.6282 89.4689 10.9622 91.2149 10.9622V7.3622H94.1129V10.9622C95.8589 10.9622 98.6129 11.6642 98.6129 15.1832C98.6129 18.7022 95.7869 19.4402 94.1129 19.4402V22.9322L91.2149 22.8872ZM93.9149 12.9872V17.5592C94.8959 17.5592 95.8679 16.8572 95.8679 15.2552C95.8679 13.6532 94.8869 12.9512 93.9149 12.9872ZM91.4039 17.4872V12.9872C90.4229 12.9872 89.4509 13.6892 89.4509 15.2912C89.4509 16.8932 90.4319 17.5592 91.4039 17.5232V17.4872ZM104.202 22.9232V19.4402C102.492 19.4402 99.6299 18.7382 99.6299 15.1832C99.6299 11.6282 102.456 10.9622 104.202 10.9622V7.3622H107.1V10.9622C108.846 10.9622 111.672 11.6642 111.672 15.1832C111.672 18.7022 108.846 19.4402 107.1 19.4402V22.9322H104.202V22.9232ZM106.902 13.0232V17.5952C107.883 17.5952 108.855 16.8932 108.855 15.2912C108.855 13.6892 107.874 12.9872 106.902 13.0232ZM104.355 17.5232V13.0232C103.374 13.0232 102.366 13.7252 102.366 15.3272C102.339 15.6085 102.372 15.8922 102.463 16.1599C102.553 16.4275 102.7 16.6731 102.892 16.8803C103.083 17.0876 103.317 17.252 103.577 17.3628C103.837 17.4736 104.117 17.5282 104.4 17.5232H104.355ZM123.543 11.0702V19.3052H126.333L129.195 14.8052V19.3052H132.093V11.0702H129.303L126.405 15.4622V11.0702H123.543ZM128.043 10.0262C128.711 10.0682 129.375 9.90668 129.949 9.5627C130.522 9.21881 130.979 8.70881 131.256 8.1002L129.375 7.3982C129.305 7.70026 129.13 7.96758 128.881 8.15229C128.632 8.33699 128.326 8.42699 128.016 8.4062C127.705 8.43473 127.395 8.3477 127.144 8.16175C126.894 7.97579 126.72 7.70394 126.657 7.3982L124.767 8.1002C125.05 8.7093 125.512 9.21836 126.09 9.56045C126.669 9.90263 127.336 10.0618 128.007 10.0172L128.043 10.0262ZM134.253 13.4372C134.878 13.0039 135.616 12.7602 136.377 12.7352C136.728 12.7352 137.529 12.8072 137.529 13.4642C137.529 14.1212 136.827 14.1662 136.557 14.1662H135.126V15.9662H136.386C136.809 15.9662 137.574 15.9662 137.574 16.6682C137.574 16.9472 137.403 17.4692 136.386 17.4692C135.503 17.4671 134.641 17.2007 133.911 16.7042L133.2 18.6752C134.325 19.321 135.602 19.6565 136.899 19.6472C140.211 19.6472 140.634 17.7302 140.634 17.1002C140.638 16.6197 140.472 16.1533 140.166 15.783C139.859 15.4125 139.432 15.162 138.96 15.0752C139.326 14.9105 139.635 14.64 139.847 14.2983C140.059 13.9568 140.163 13.5598 140.148 13.1582C140.148 11.2412 138.123 10.8542 136.872 10.8542C135.699 10.8759 134.545 11.149 133.488 11.6552L134.253 13.4372ZM151.758 19.2962H154.656V16.0202H157.311V19.2962H160.2V11.0702H157.302V13.9682H154.647V11.0702H151.749L151.758 19.2962Z" fill="black"/>
<path d="M50.9399 37.4402H20.7V7.2002H50.9399V37.4402ZM49.9589 8.2082H21.708V36.4592H49.9589V8.2082Z" fill="black"/>
<path d="M35.838 25.7853L27.153 34.4703L23.697 31.0143L32.4 22.3383L30.6 20.5383V16.9383L29.34 15.6783V18.7833L28.26 19.8633L23.832 15.5073L22.752 16.5873C22.7578 15.6197 22.9549 14.6628 23.3317 13.7716C23.7087 12.8805 24.2578 12.0725 24.948 11.3943C25.614 10.6479 26.5465 10.193 27.5446 10.1273C28.5428 10.0616 29.5269 10.3906 30.285 11.0433L34.677 15.4713L33.561 16.5873L35.838 18.9003L38.142 16.5963L37.026 15.4803L41.4 11.0343C42.157 10.3794 43.1416 10.049 44.1405 10.1147C45.1394 10.1804 46.0722 10.6368 46.737 11.3853C47.4271 12.0635 47.9763 12.8714 48.3532 13.7626C48.73 14.6538 48.927 15.6107 48.933 16.5783L47.853 15.4983L43.425 19.8903L42.345 18.8103V15.6783L41.094 16.9383V20.5383L39.294 22.3383L47.979 31.0233L44.523 34.4703L35.838 25.7853Z" fill="black"/>
</g>
</svg>
