<svg width="10" height="13" viewBox="0 0 10 13" fill="none" xmlns="http://www.w3.org/2000/svg">
<path d="M1.512 12.7798V10.6018H0V9.34178H1.512V8.18978H0V6.74979H1.512V-0.00021553H5.94C6.756 -0.00021553 7.452 0.203784 8.028 0.611784C8.604 1.00778 9.042 1.51778 9.342 2.14178C9.654 2.76578 9.81 3.41378 9.81 4.08578C9.81 4.78178 9.666 5.44778 9.378 6.08378C9.09 6.70778 8.664 7.21778 8.1 7.61379C7.548 7.99778 6.864 8.18978 6.048 8.18978H3.132V9.34178H5.958V10.6018H3.132V12.7798H1.512ZM3.132 6.74979H5.958C6.522 6.74979 6.966 6.62978 7.29 6.38978C7.614 6.14978 7.842 5.82578 7.974 5.41778C8.106 5.00978 8.172 4.56578 8.172 4.08578C8.172 3.32979 7.986 2.69979 7.614 2.19579C7.242 1.69178 6.648 1.43978 5.832 1.43978H3.132V6.74979Z" fill="white"/>
</svg>
