<svg width="180" height="45" viewBox="0 0 180 45" fill="none" xmlns="http://www.w3.org/2000/svg">
<g opacity="0.8">
<path d="M26.3701 6.2998C25.8301 6.9298 22.8601 11.1598 20.2501 17.7298C19.5301 19.7098 18.2701 24.0298 18.0901 28.1698V30.5098C18.1801 34.7398 18.8101 38.5198 19.0801 39.6898C19.0801 37.9798 19.0801 32.3998 20.4301 27.8098C21.7801 23.2198 24.3001 17.9098 26.3701 15.2098C28.6201 17.9998 31.4101 24.2098 32.4001 27.8998C33.3901 31.5898 33.9301 36.2698 33.6601 39.5998C34.2901 37.6198 34.7401 34.3798 34.8301 31.3198C34.9201 28.2598 34.5601 23.0398 32.5801 17.6398C30.6901 12.1498 26.9101 6.9298 26.3701 6.2998Z" fill="url(#paint0_linear_11_21011)"/>
<path d="M22.4101 26.4601C21.9601 27.6301 21.1501 30.2401 21.0601 32.7601C20.8801 35.8201 21.5101 38.8801 21.6901 39.6901C21.6901 38.7001 21.6901 35.2801 22.5901 32.5801C23.4901 29.7901 25.1101 26.6401 26.4601 24.9301C27.9001 26.6401 29.7001 30.3301 30.3301 32.5801C30.9601 34.8301 31.3201 37.6201 31.1401 39.6901C31.5001 38.5201 31.8601 36.5401 31.8601 34.7401C31.9501 32.9401 31.6801 29.7901 30.4201 26.4601C29.1601 23.2201 26.7301 20.0701 26.3701 19.6201C26.0101 19.9801 24.1201 22.5001 22.4101 26.4601Z" fill="url(#paint1_linear_11_21011)"/>
<path d="M50.2199 29.6099C50.2199 29.9699 50.13 29.9699 50.13 29.9699C50.13 29.9699 50.0399 30.0599 49.5899 30.0599C49.2299 30.0599 49.05 29.9699 49.05 29.9699C49.05 29.9699 48.96 29.8799 48.96 29.6099V16.0199C48.96 15.6599 49.05 15.6599 49.05 15.6599C49.05 15.6599 49.2299 15.5699 49.5899 15.5699C50.0399 15.5699 50.13 15.6599 50.13 15.6599C50.13 15.6599 50.2199 15.7499 50.2199 16.0199V19.9799H53.7299V16.0199C53.7299 15.3899 53.6399 14.9399 53.5499 14.5799C53.1899 13.3199 51.8399 12.6899 49.5899 12.6899H49.5C48.15 12.6899 47.16 12.8699 46.62 13.2299C45.81 13.7699 45.45 14.6699 45.45 16.0199V29.6099C45.45 30.9599 45.81 31.8599 46.62 32.3999C47.25 32.7599 48.1499 32.9399 49.5899 32.9399C51.8399 32.9399 53.1899 32.3099 53.5499 31.0499C53.6399 30.6899 53.7299 30.2399 53.7299 29.6099V25.1099H50.2199V29.6099Z" fill="url(#paint2_linear_11_21011)"/>
<path d="M55.98 32.8501H63V29.7001H59.49V23.4001H62.82V20.3401H59.49V15.9301H63V12.8701H55.98V32.8501Z" fill="url(#paint3_linear_11_21011)"/>
<path d="M72.54 22.5901C72.27 22.2301 71.91 22.0501 71.55 21.8701C71.91 21.6901 72.18 21.5101 72.36 21.3301C72.72 20.9701 72.9 20.2501 72.9 19.3501V16.6501C72.9 15.3001 72.72 14.3101 72.18 13.7701C71.64 13.1401 70.74 12.8701 69.39 12.8701H64.98V32.8501H69.93C70.47 32.8501 70.92 32.7601 71.28 32.6701C72.45 32.3101 73.08 31.0501 73.08 28.8001V24.7501C73.08 23.7601 72.9 23.0401 72.54 22.5901ZM69.57 28.7101C69.57 29.7901 69.12 29.8801 68.76 29.8801H68.4V23.4001H68.67C69.12 23.4001 69.57 23.5801 69.57 24.7501V28.7101ZM69.57 19.2601C69.57 20.4301 69.03 20.4301 68.85 20.4301H68.4V15.6601H68.85C69.12 15.6601 69.57 15.6601 69.57 16.7401V19.2601Z" fill="url(#paint4_linear_11_21011)"/>
<path d="M75.3298 32.8501H82.4398V29.7001H78.8398V23.4001H82.2598V20.3401H78.8398V15.9301H82.4398V12.8701H75.3298V32.8501Z" fill="url(#paint5_linear_11_21011)"/>
<path d="M92.3399 14.8501C92.2499 13.8601 91.7099 13.2301 90.9899 13.0501C90.6299 12.9601 90.0899 12.8701 89.3699 12.8701H84.4199V32.7601H87.9299V25.9201C89.2799 25.9201 90.0899 25.9201 90.4499 25.8301C91.2599 25.7401 91.7999 25.2901 92.0699 24.7501C92.3399 24.2101 92.5199 23.3101 92.5199 21.9601V16.9201C92.5199 15.9301 92.4299 15.2101 92.3399 14.8501ZM89.0999 21.6901C89.0999 22.4101 89.0099 22.5901 89.0099 22.5901C89.0099 22.6801 88.9199 22.8601 88.5599 22.8601H88.0199V16.0201H88.5599C89.0099 16.0201 89.0099 16.2001 89.0099 16.2901C89.0099 16.2901 89.0999 16.4701 89.0999 17.1901V21.6901Z" fill="url(#paint6_linear_11_21011)"/>
<path d="M94.6799 32.8501H98.1899V15.9301H101.16V12.8701H94.6799V32.8501Z" fill="url(#paint7_linear_11_21011)"/>
<path d="M108.45 12.8701H103.5L101.25 32.8501H104.49L105.03 27.9901H106.74L107.19 32.8501H110.7L108.45 12.8701ZM105.03 25.4701L105.93 16.0201L106.74 25.4701H105.03Z" fill="url(#paint8_linear_11_21011)"/>
<path d="M119.07 13.2299C118.53 12.8699 117.54 12.6899 116.19 12.6899H116.1C113.76 12.6899 112.41 13.3199 112.14 14.5799C112.05 15.0299 111.96 15.4799 111.96 16.0199V18.6299H115.47V16.2899C115.47 15.8399 115.56 15.6599 115.56 15.6599C115.56 15.6599 115.65 15.5699 116.1 15.5699C116.37 15.5699 116.64 15.6599 116.64 16.3799V19.3499C116.64 20.3399 116.28 20.3399 116.1 20.3399H114.12V23.3099H116.1C116.28 23.3099 116.64 23.3099 116.64 24.3899V29.4299C116.64 30.1499 116.37 30.2399 116.1 30.2399C115.83 30.2399 115.65 30.1499 115.56 30.0599C115.56 30.0599 115.47 29.9699 115.47 29.4299V25.1999H111.96V29.6099C111.96 30.1499 112.05 30.6899 112.14 31.0499C112.5 32.3099 113.76 32.9399 116.1 32.9399C117.54 32.9399 118.53 32.7599 119.07 32.3999C119.79 31.9499 120.15 30.9599 120.15 29.6099V24.7499C120.15 23.3999 119.7 22.4099 118.71 21.8699C119.61 21.4199 120.15 20.5199 120.15 19.2599V16.0199C120.24 14.6699 119.79 13.7699 119.07 13.2299Z" fill="url(#paint9_linear_11_21011)"/>
<path d="M130.05 21.33C129.78 20.7 129.24 20.34 128.43 20.25C128.07 20.16 127.26 20.16 125.91 20.16V16.02H130.23V12.96H122.4V32.94H126.99C127.71 32.94 128.25 32.85 128.7 32.76C129.51 32.58 130.05 32.04 130.32 31.05C130.5 30.6 130.5 29.79 130.5 28.8V24.21C130.5 22.86 130.32 21.87 130.05 21.33ZM126.99 28.44C126.99 29.07 126.9 29.34 126.9 29.43C126.81 29.61 126.45 29.7 126.09 29.7H125.91V23.22H126.09C126.36 23.22 126.81 23.31 126.9 23.49C126.9 23.58 126.99 23.76 126.99 24.48V28.44Z" fill="url(#paint10_linear_11_21011)"/>
<path d="M138.96 12.8701H134.01L131.76 32.8501H135L135.54 27.9901H137.25L137.7 32.8501H141.21L138.96 12.8701ZM135.63 25.4701L136.53 16.0201L137.34 25.4701H135.63Z" fill="url(#paint11_linear_11_21011)"/>
<path d="M147.24 20.2501H146.16V12.8701H142.65V32.8501H146.16V23.4901H147.24V32.8501H150.75V12.8701H147.24V20.2501Z" fill="url(#paint12_linear_11_21011)"/>
<path d="M159.21 22.2301L161.91 12.8701H158.4L156.69 19.2601V12.8701H153.18V32.8501H156.69V25.6501L158.31 32.8501H162L159.21 22.2301Z" fill="url(#paint13_linear_11_21011)"/>
</g>
<defs>
<linearGradient id="paint0_linear_11_21011" x1="26.4664" y1="39.6898" x2="26.4664" y2="6.29972" gradientUnits="userSpaceOnUse">
<stop stop-color="#0073B7"/>
<stop offset="1" stop-color="#1A93CD"/>
</linearGradient>
<linearGradient id="paint1_linear_11_21011" x1="26.452" y1="39.6901" x2="26.452" y2="19.5749" gradientUnits="userSpaceOnUse">
<stop stop-color="#0073B7"/>
<stop offset="1" stop-color="#1A93CD"/>
</linearGradient>
<linearGradient id="paint2_linear_11_21011" x1="126.45" y1="32.9399" x2="126.45" y2="12.7281" gradientUnits="userSpaceOnUse">
<stop stop-color="#0073B7"/>
<stop offset="1" stop-color="#1A93CD"/>
</linearGradient>
<linearGradient id="paint3_linear_11_21011" x1="126.45" y1="32.9401" x2="126.45" y2="12.7283" gradientUnits="userSpaceOnUse">
<stop stop-color="#0073B7"/>
<stop offset="1" stop-color="#1A93CD"/>
</linearGradient>
<linearGradient id="paint4_linear_11_21011" x1="126.45" y1="32.9401" x2="126.45" y2="12.7283" gradientUnits="userSpaceOnUse">
<stop stop-color="#0073B7"/>
<stop offset="1" stop-color="#1A93CD"/>
</linearGradient>
<linearGradient id="paint5_linear_11_21011" x1="126.45" y1="32.9401" x2="126.45" y2="12.7283" gradientUnits="userSpaceOnUse">
<stop stop-color="#0073B7"/>
<stop offset="1" stop-color="#1A93CD"/>
</linearGradient>
<linearGradient id="paint6_linear_11_21011" x1="126.45" y1="32.9401" x2="126.45" y2="12.7283" gradientUnits="userSpaceOnUse">
<stop stop-color="#0073B7"/>
<stop offset="1" stop-color="#1A93CD"/>
</linearGradient>
<linearGradient id="paint7_linear_11_21011" x1="126.45" y1="32.9401" x2="126.45" y2="12.7283" gradientUnits="userSpaceOnUse">
<stop stop-color="#0073B7"/>
<stop offset="1" stop-color="#1A93CD"/>
</linearGradient>
<linearGradient id="paint8_linear_11_21011" x1="126.45" y1="32.9401" x2="126.45" y2="12.7283" gradientUnits="userSpaceOnUse">
<stop stop-color="#0073B7"/>
<stop offset="1" stop-color="#1A93CD"/>
</linearGradient>
<linearGradient id="paint9_linear_11_21011" x1="126.45" y1="32.9399" x2="126.45" y2="12.7281" gradientUnits="userSpaceOnUse">
<stop stop-color="#0073B7"/>
<stop offset="1" stop-color="#1A93CD"/>
</linearGradient>
<linearGradient id="paint10_linear_11_21011" x1="126.45" y1="32.94" x2="126.45" y2="12.7281" gradientUnits="userSpaceOnUse">
<stop stop-color="#0073B7"/>
<stop offset="1" stop-color="#1A93CD"/>
</linearGradient>
<linearGradient id="paint11_linear_11_21011" x1="126.45" y1="32.9401" x2="126.45" y2="12.7283" gradientUnits="userSpaceOnUse">
<stop stop-color="#0073B7"/>
<stop offset="1" stop-color="#1A93CD"/>
</linearGradient>
<linearGradient id="paint12_linear_11_21011" x1="126.45" y1="32.9401" x2="126.45" y2="12.7283" gradientUnits="userSpaceOnUse">
<stop stop-color="#0073B7"/>
<stop offset="1" stop-color="#1A93CD"/>
</linearGradient>
<linearGradient id="paint13_linear_11_21011" x1="126.45" y1="32.9401" x2="126.45" y2="12.7283" gradientUnits="userSpaceOnUse">
<stop stop-color="#0073B7"/>
<stop offset="1" stop-color="#1A93CD"/>
</linearGradient>
</defs>
</svg>
