<svg width="29" height="29" viewBox="0 0 29 29" fill="none" xmlns="http://www.w3.org/2000/svg">
<circle cx="14.5" cy="14.5" r="14" stroke="#E0E0E0"/>
<path d="M20.6289 17.6972C20.6289 17.6453 20.5771 17.6453 20.5771 17.5934C20.3695 17.1783 19.9025 16.6594 19.2798 16.0886C18.9685 15.8291 18.8128 15.6216 18.709 15.5178C18.5534 15.3102 18.5534 15.1546 18.6053 14.947C18.6572 14.7914 18.8647 14.5319 19.2279 14.0649C19.4355 13.8055 19.5393 13.6498 19.6949 13.4941C20.4733 12.4563 20.8365 11.7818 20.7327 11.4704L20.6808 11.4186C20.6289 11.3667 20.577 11.3148 20.4733 11.3148C20.3695 11.2629 20.2138 11.2629 20.0582 11.3148H18.0864C18.0345 11.3148 18.0345 11.3148 17.9307 11.3148C17.8788 11.3148 17.8269 11.3148 17.8269 11.3148H17.775H17.7231L17.6712 11.3667C17.6194 11.4185 17.6194 11.4185 17.6194 11.4704C17.4118 12.0412 17.1524 12.5082 16.8929 13.0271C16.7372 13.2866 16.5816 13.546 16.4259 13.7536C16.2702 13.9611 16.1665 14.1168 16.0627 14.2206C15.9589 14.3244 15.8551 14.3762 15.8032 14.48C15.7513 14.5319 15.6476 14.5838 15.6476 14.5319C15.5957 14.5319 15.5438 14.5319 15.5438 14.48C15.4919 14.4281 15.44 14.3762 15.3881 14.3243C15.3362 14.2725 15.3362 14.1687 15.2843 14.0649C15.2843 13.9611 15.2843 13.8573 15.2843 13.8055C15.2843 13.7536 15.2843 13.5979 15.2843 13.4941C15.2843 13.3385 15.2843 13.2347 15.2843 13.1828C15.2843 13.0271 15.2843 12.8196 15.2843 12.612C15.2843 12.4045 15.2843 12.2488 15.2843 12.145C15.2843 12.0412 15.2843 11.8856 15.2843 11.7818C15.2843 11.6261 15.2843 11.5223 15.2843 11.4704C15.2843 11.4185 15.2325 11.3148 15.2325 11.2629C15.1806 11.211 15.1287 11.1591 15.0768 11.1072C15.0249 11.0553 14.9211 11.0553 14.8692 11.0034C14.6098 10.9515 14.2984 10.8997 13.9352 10.8997C13.105 10.8997 12.5342 10.9515 12.3267 11.0553C12.2229 11.1072 12.1191 11.1591 12.0672 11.2629C11.9634 11.3667 11.9634 11.4186 12.0153 11.4186C12.2748 11.4704 12.4823 11.5742 12.5861 11.7299L12.638 11.8337C12.6899 11.8856 12.6899 11.9893 12.7418 12.145C12.7936 12.3007 12.7937 12.4563 12.7937 12.6639C12.7937 12.9752 12.7937 13.2866 12.7937 13.4941C12.7937 13.7536 12.7418 13.9092 12.7418 14.0649C12.7418 14.2206 12.6899 14.3244 12.638 14.3762C12.5861 14.48 12.5861 14.5319 12.5342 14.5319C12.5342 14.5319 12.5342 14.5838 12.4823 14.5838C12.4304 14.5838 12.3785 14.6357 12.2748 14.6357C12.2229 14.6357 12.1191 14.5838 12.0672 14.5319C11.9634 14.48 11.8596 14.3762 11.8078 14.2725C11.704 14.1687 11.6002 14.013 11.4964 13.8055C11.3926 13.5979 11.237 13.3903 11.1332 13.079L11.0294 12.8715C10.9775 12.7677 10.8737 12.5601 10.77 12.3007C10.6662 12.0412 10.5624 11.8337 10.4586 11.5742C10.4067 11.4704 10.3549 11.4185 10.303 11.3667H10.2511C10.2511 11.3667 10.1992 11.3148 10.1473 11.3148C10.0954 11.3148 10.0435 11.2629 9.99163 11.2629H8.12361C7.91605 11.2629 7.81228 11.3148 7.76039 11.3667L7.7085 11.4186C7.7085 11.4186 7.7085 11.4704 7.7085 11.5223C7.7085 11.5742 7.7085 11.6261 7.76039 11.7299C8.01984 12.3526 8.33117 12.9752 8.64251 13.5979C8.95384 14.1687 9.26518 14.6876 9.47274 15.0508C9.73218 15.414 9.93974 15.7773 10.1992 16.0886C10.4586 16.3999 10.6143 16.6075 10.6662 16.7113C10.77 16.815 10.8219 16.8669 10.8737 16.9188L11.0294 17.0745C11.1332 17.1783 11.2889 17.3339 11.4964 17.4896C11.704 17.6453 11.9634 17.8009 12.2229 17.9566C12.4823 18.1123 12.7937 18.2161 13.105 18.3198C13.4682 18.4236 13.7795 18.4755 14.0909 18.4236H14.8692C15.0249 18.4236 15.1287 18.3717 15.2325 18.2679L15.2843 18.216C15.2843 18.1642 15.3362 18.1642 15.3362 18.1123C15.3362 18.0604 15.3362 18.0085 15.3362 17.9047C15.3362 17.6972 15.3362 17.5415 15.3881 17.3858C15.44 17.2302 15.44 17.1264 15.4919 17.0226C15.5438 16.9188 15.5957 16.8669 15.6476 16.815C15.6995 16.7631 15.7514 16.7113 15.7514 16.7113H15.8032C15.907 16.6594 16.0627 16.7113 16.1665 16.815C16.3221 16.9188 16.4778 17.0745 16.5816 17.2302C16.6853 17.3858 16.841 17.5415 17.0486 17.749C17.2561 17.9566 17.4118 18.1123 17.5156 18.1642L17.6712 18.2679C17.775 18.3198 17.8788 18.3717 18.0345 18.4236C18.1901 18.4755 18.2939 18.4755 18.3977 18.4755L20.1619 18.4236C20.3176 18.4236 20.4733 18.3717 20.5771 18.3198C20.6808 18.2679 20.7327 18.2161 20.7327 18.1123C20.7327 18.0604 20.7327 17.9566 20.7327 17.9047C20.6289 17.8009 20.6289 17.749 20.6289 17.6972Z" fill="#2FD3AE"/>
</svg>
