<svg width="180" height="45" viewBox="0 0 180 45" fill="none" xmlns="http://www.w3.org/2000/svg">
<g opacity="0.8" clip-path="url(#clip0_11_21009)">
<path d="M36.27 15.3001C36 14.8501 36 14.4001 36.09 13.9501C36.18 13.5001 36.54 13.1401 36.9 12.8701L45 8.1901C45.09 8.1901 45.27 8.1001 45.45 8.1001C45.63 8.1001 45.81 8.1901 45.9 8.1901L54 12.7801C54.36 13.0501 54.72 13.4101 54.81 13.8601C54.9 14.3101 54.9 14.7601 54.63 15.2101C54.36 15.5701 54 15.9301 53.55 16.0201C53.1 16.2001 52.65 16.2001 52.2 15.9301L45.45 12.0601L38.7 15.9301C38.52 16.0201 38.25 16.1101 38.07 16.2001H37.35C37.08 16.1101 36.9 16.0201 36.72 15.9301C36.54 15.6601 36.45 15.4801 36.27 15.3001Z" fill="#EB3723"/>
<path d="M53.0101 17.9099H37.9801C37.7101 17.9099 37.5301 17.9999 37.3501 18.1799C37.1701 18.3599 37.0801 18.5399 37.0801 18.8099V27.4499C37.0801 27.9899 37.2601 28.5299 37.7101 28.8899C38.0701 29.2499 38.6101 29.5199 39.1501 29.5199C39.6901 29.5199 40.2301 29.3399 40.5901 28.8899C40.9501 28.5299 41.2201 27.9899 41.2201 27.4499V21.4199H43.6501V27.4499C43.6501 27.9899 43.8301 28.5299 44.2801 28.8899C44.6401 29.2499 45.1801 29.5199 45.7201 29.5199C46.2601 29.5199 46.8001 29.3399 47.1601 28.8899C47.5201 28.5299 47.7901 27.9899 47.7901 27.4499V21.4199H50.2201V27.4499C50.2201 27.9899 50.4001 28.5299 50.8501 28.8899C51.2101 29.2499 51.7501 29.5199 52.2901 29.5199C52.8301 29.5199 53.3701 29.3399 53.7301 28.8899C54.0901 28.5299 54.3601 27.9899 54.3601 27.4499V18.8099C54.2701 18.5399 54.1801 18.3599 54.0001 18.1799C53.4601 17.9999 53.2801 17.9099 53.0101 17.9099ZM9.72009 24.7499C9.54009 24.2999 9.18009 23.9399 8.82009 23.6699C8.55009 23.4899 8.28009 23.3099 7.92009 23.2199C8.37009 23.0399 8.73009 22.6799 9.00009 22.2299C9.27009 21.7799 9.36009 21.3299 9.36009 20.8799C9.36009 20.4299 9.36009 17.8199 5.76009 17.8199H0.360088H0.270088C0.270088 17.8199 0.180088 17.8199 0.180088 17.9099L0.0900879 17.9999V29.1599C0.0900879 29.1599 0.0900879 29.2499 0.180088 29.2499L0.270088 29.3399H6.03009C9.72009 29.3399 9.90009 26.6399 9.90009 26.0099C9.99009 25.6499 9.90009 25.1999 9.72009 24.7499ZM3.51009 20.5199H4.68009C4.95009 20.5199 5.22009 20.6099 5.58009 20.6999C5.76009 20.7899 5.85009 20.8799 5.94009 20.9699C6.03009 21.1499 6.03009 21.2399 6.03009 21.4199C6.03009 21.9599 5.67009 22.3199 4.77009 22.3199H3.51009V20.5199ZM4.86009 26.8199H3.51009V24.9299H4.86009C5.85009 24.9299 6.39009 25.3799 6.39009 25.8299C6.39009 26.5499 5.94009 26.8199 4.86009 26.8199ZM118.35 16.9199C119.07 16.9199 119.7 16.8299 120.33 16.5599C120.96 16.2899 121.5 15.8399 121.86 15.2099L121.95 15.1199V15.0299C121.95 15.0299 121.95 14.9399 121.86 14.9399L121.77 14.8499L120.06 14.0399H119.79C119.7 14.0399 119.61 14.1299 119.61 14.2199C119.43 14.3999 119.25 14.5799 118.98 14.7599C118.71 14.8499 118.44 14.9399 118.26 14.9399C118.08 14.9399 117.72 14.8499 117.54 14.7599C117.27 14.6699 117.09 14.4899 116.91 14.2199C116.82 14.0399 116.64 13.9499 116.55 14.1299L114.84 14.9399C114.75 15.0299 114.75 15.0299 114.75 15.1199V15.3899C115.11 15.9299 115.65 16.4699 116.28 16.7399C117 16.9199 117.63 17.0099 118.35 16.9199C118.35 17.0099 118.35 16.9199 118.35 16.9199ZM30.5101 20.6999C30.9601 20.6999 31.4101 20.7899 31.7701 20.9699C32.1301 21.1499 32.4901 21.4199 32.7601 21.7799L32.8501 21.8699H33.0301C33.0301 21.8699 33.1201 21.8699 33.1201 21.7799L34.7401 19.7099C34.8301 19.6199 34.8301 19.5299 34.8301 19.4399C34.8301 19.3499 34.8301 19.2599 34.7401 19.1699C33.4801 18.1799 31.9501 17.5499 30.4201 17.5499C29.6101 17.5499 28.8001 17.6399 28.0801 17.9099C27.3601 18.1799 26.6401 18.6299 26.1001 19.1699C25.5601 19.7099 25.1101 20.4299 24.8401 21.1499C24.5701 21.8699 24.4801 22.6799 24.4801 23.4899C24.4801 25.8299 25.9201 29.4299 30.3301 29.4299C31.9501 29.4299 33.4801 28.8899 34.6501 27.8099C34.7401 27.7199 34.7401 27.6299 34.7401 27.5399C34.7401 27.4499 34.7401 27.3599 34.6501 27.2699L33.3001 25.6499L33.2101 25.5599H33.1201H33.0301C33.0301 25.5599 32.9401 25.5599 32.9401 25.6499C32.6701 26.0099 32.3101 26.1899 31.8601 26.3699C31.5001 26.5499 31.0501 26.6399 30.6001 26.6399C29.4301 26.6399 28.2601 25.6499 28.2601 23.5799C28.0801 21.9599 28.9801 20.6999 30.5101 20.6999ZM22.8601 21.4199C22.5901 20.6999 22.1401 19.9799 21.6001 19.4399C21.0601 18.8999 20.3401 18.4499 19.6201 18.1799C18.9001 17.9099 18.0901 17.7299 17.2801 17.8199C16.4701 17.8199 15.6601 17.9099 14.9401 18.1799C14.2201 18.4499 13.5001 18.8999 12.9601 19.4399C12.4201 19.9799 11.9701 20.6999 11.7001 21.4199C11.4301 22.1399 11.3401 22.9499 11.3401 23.7599C11.3401 26.1899 12.7801 29.7899 17.1901 29.7899C21.6001 29.7899 23.0401 26.1899 23.0401 23.7599C23.2201 22.9499 23.1301 22.1399 22.8601 21.4199ZM17.2801 26.8199C16.1101 26.8199 14.8501 25.8299 14.8501 23.6699C14.8501 21.8699 15.7501 20.5199 17.2801 20.5199C18.7201 20.5199 19.6201 21.8699 19.6201 23.6699C19.6201 25.8299 18.4501 26.8199 17.2801 26.8199ZM92.5201 17.9099H89.6401H89.5501C89.5501 17.9099 89.4601 17.9099 89.4601 17.9999L89.3701 18.0899V22.2299H85.9501V18.1799V18.0899C85.9501 18.0899 85.9501 17.9999 85.8601 17.9999L85.7701 17.9099H82.8001H82.7101C82.7101 17.9099 82.6201 17.9099 82.6201 17.9999L82.5301 18.0899V29.2499C82.5301 29.2499 82.5301 29.3399 82.6201 29.3399L82.7101 29.4299H85.7701C85.7701 29.4299 85.8601 29.4299 85.8601 29.3399L85.9501 29.2499V24.9299H89.3701V29.2499C89.3701 29.2499 89.3701 29.3399 89.4601 29.3399L89.5501 29.4299H92.6101C92.6101 29.4299 92.7001 29.4299 92.7001 29.3399L92.7901 29.2499V18.1799C92.8801 17.9999 92.7001 17.9099 92.5201 17.9099ZM123.21 17.9099H119.97C119.88 17.9099 119.88 17.9999 119.88 18.0899L116.64 24.0299V18.1799V18.0899C116.64 18.0899 116.64 17.9999 116.55 17.9999L116.46 17.9099H113.49H113.4C113.4 17.9099 113.31 17.9099 113.31 17.9999L113.22 18.0899V29.1599C113.22 29.1599 113.22 29.2499 113.31 29.2499L113.4 29.3399H116.55C116.64 29.3399 116.64 29.3399 116.73 29.2499C116.82 29.2499 116.82 29.1599 116.82 29.1599L120.06 23.2199V29.1599C120.06 29.1599 120.06 29.2499 120.15 29.2499L120.24 29.3399H123.3C123.3 29.3399 123.39 29.3399 123.39 29.2499L123.48 29.1599V18.1799V18.0899C123.48 18.0899 123.48 17.9999 123.39 17.9999L123.3 17.9099H123.21ZM67.4101 21.4199C67.1401 20.6999 66.6901 19.9799 66.1501 19.4399C65.6101 18.8999 64.8901 18.4499 64.1701 18.1799C63.4501 17.9099 62.6401 17.7299 61.8301 17.8199C61.0201 17.8199 60.2101 17.9099 59.4901 18.1799C58.7701 18.4499 58.0501 18.8999 57.5101 19.4399C56.9701 19.9799 56.5201 20.6999 56.2501 21.4199C55.9801 22.1399 55.8901 22.9499 55.8901 23.7599C55.8901 26.1899 57.3301 29.7899 61.7401 29.7899C66.1501 29.7899 67.5901 26.1899 67.5901 23.7599C67.8601 22.9499 67.6801 22.1399 67.4101 21.4199ZM61.9201 26.8199C60.7501 26.8199 59.4901 25.8299 59.4901 23.6699C59.4901 21.8699 60.3901 20.5199 61.9201 20.5199C63.4501 20.5199 64.3501 21.8699 64.3501 23.6699C64.2601 25.8299 63.0001 26.8199 61.9201 26.8199ZM110.07 17.9099H107.19H107.1C107.1 17.9099 107.01 17.9099 107.01 17.9999L106.92 18.0899V29.2499C106.92 29.2499 106.92 29.3399 107.01 29.3399L107.1 29.4299H110.16C110.16 29.4299 110.25 29.4299 110.25 29.3399L110.34 29.2499V18.1799V18.0899C110.34 18.0899 110.34 17.9999 110.25 17.9999L110.16 17.9099H110.07ZM100.8 22.1399H99.0901V18.2699V18.1799C99.0901 18.1799 99.0901 18.0899 99.0001 18.0899L98.9101 17.9999H95.9401H95.8501C95.8501 17.9999 95.7601 17.9999 95.7601 18.0899L95.6701 18.1799V29.3399C95.6701 29.3399 95.6701 29.4299 95.7601 29.4299L95.8501 29.5199H100.89C103.86 29.5199 105.48 28.1699 105.48 25.7399C105.39 23.3099 103.77 22.1399 100.8 22.1399ZM101.43 26.6399C101.16 26.8199 100.8 26.9099 100.53 26.9099H99.1801V24.8399H100.53C100.8 24.8399 101.16 24.9299 101.43 25.0199C101.61 25.1099 101.7 25.1999 101.79 25.3799C101.88 25.5599 101.88 25.7399 101.88 25.9199C101.79 26.1899 101.7 26.4599 101.43 26.6399ZM79.2901 17.8199H76.5001H76.4101C76.4101 17.8199 76.3201 17.8199 76.3201 17.9099L76.2301 17.9999V22.8599C73.4401 23.3099 72.9901 22.3199 72.9901 21.5099V18.1799V18.0899C72.9901 18.0899 72.9901 17.9999 72.9001 17.9999L72.8101 17.9099H69.8401C69.7501 17.9099 69.6601 17.9099 69.6601 17.9999C69.6601 18.0899 69.5701 18.0899 69.5701 18.1799V20.4299C69.5701 21.6899 69.6601 23.0399 69.6601 23.4899C69.9301 25.0199 71.2801 25.6499 72.7201 25.8299C73.8901 25.9199 75.1501 25.8299 76.2301 25.5599V29.2499C76.2301 29.2499 76.2301 29.3399 76.3201 29.3399L76.4101 29.4299H79.4701C79.4701 29.4299 79.5601 29.4299 79.5601 29.3399L79.6501 29.2499V18.1799C79.6501 18.0899 79.5601 17.9999 79.5601 17.9099C79.4701 17.9099 79.3801 17.9099 79.2901 17.8199C79.2901 17.9099 79.2901 17.8199 79.2901 17.8199ZM166.77 17.8199H163.89H163.8C163.8 17.8199 163.71 17.8199 163.71 17.9099L163.62 17.9999V22.1399H160.2V18.0899V17.9999C160.2 17.9999 160.2 17.9099 160.11 17.9099L160.02 17.8199H157.05H156.96C156.96 17.8199 156.87 17.8199 156.87 17.9099L156.78 17.9999V29.1599C156.78 29.1599 156.78 29.2499 156.87 29.2499L156.96 29.3399H160.02C160.02 29.3399 160.11 29.3399 160.11 29.2499L160.2 29.1599V24.8399H163.62V29.1599C163.62 29.1599 163.62 29.2499 163.71 29.2499L163.8 29.3399H166.86C166.86 29.3399 166.95 29.3399 166.95 29.2499L167.04 29.1599V18.1799V18.0899C167.04 18.0899 167.04 17.9999 166.95 17.9999L166.86 17.9099C166.86 17.9099 166.77 17.9099 166.77 17.8199ZM138.42 22.3199H135.9V20.6099H141.3C141.3 20.6099 141.39 20.6099 141.39 20.5199L141.48 20.4299V18.3599V18.2699C141.48 18.2699 141.48 18.1799 141.39 18.1799L141.3 18.0899H132.66H132.57C132.57 18.0899 132.48 18.0899 132.48 18.1799L132.39 18.2699V29.4299C132.39 29.4299 132.39 29.5199 132.48 29.5199L132.57 29.6099H138.33C142.02 29.6099 142.29 26.9099 142.29 26.0099C142.29 25.1099 142.11 22.3199 138.42 22.3199ZM137.25 26.8199H135.9V24.8399H137.25C138.24 24.8399 138.69 25.1999 138.78 25.8299C138.78 26.4599 138.24 26.8199 137.25 26.8199ZM176.4 23.6699L179.91 18.3599C179.91 18.2699 180 18.2699 180 18.1799V18.0899C180 18.0899 180 17.9999 179.91 17.9999L179.82 17.9099H176.49C176.4 17.9099 176.4 17.9999 176.4 18.0899L173.43 22.9499V18.1799V18.0899C173.43 18.0899 173.43 17.9999 173.34 17.9999L173.25 17.9099H170.28H170.19C170.19 17.9099 170.1 17.9099 170.1 17.9999L170.01 18.0899V29.1599C170.01 29.1599 170.01 29.2499 170.1 29.2499L170.19 29.3399H173.25C173.25 29.3399 173.34 29.3399 173.34 29.2499L173.43 29.1599V24.2999L176.4 29.2499C176.4 29.3399 176.49 29.3399 176.49 29.3399C176.58 29.3399 176.58 29.4299 176.67 29.4299H179.82C179.82 29.4299 179.91 29.4299 179.91 29.3399L180 29.2499V29.1599C180 29.0699 180 28.9799 179.91 28.9799L176.4 23.6699ZM155.07 29.0699L150.93 18.1799C150.93 18.0899 150.84 18.0899 150.84 17.9999C150.75 17.9999 150.75 17.9099 150.66 17.9099H147.6C147.51 17.9099 147.42 17.9099 147.42 17.9999C147.33 17.9999 147.33 18.0899 147.33 18.1799L143.1 29.0699V29.3399C143.1 29.3399 143.1 29.4299 143.19 29.4299L143.28 29.5199H146.34C146.43 29.5199 146.52 29.5199 146.52 29.4299C146.61 29.4299 146.61 29.3399 146.61 29.2499L147.06 27.5399H150.75L151.29 29.2499C151.29 29.3399 151.38 29.3399 151.38 29.4299C151.47 29.4299 151.47 29.5199 151.56 29.5199H154.71C154.71 29.5199 154.8 29.5199 154.8 29.4299L154.89 29.3399V29.2499L155.07 29.0699ZM148.05 24.9299L149.04 21.4199L150.12 24.9299H148.05Z" fill="#1B58A9"/>
</g>
<defs>
<clipPath id="clip0_11_21009">
<rect width="180" height="45" fill="white"/>
</clipPath>
</defs>
</svg>
