<svg width="180" height="45" viewBox="0 0 180 45" fill="none" xmlns="http://www.w3.org/2000/svg">
<g opacity="0.8">
<path d="M71.1 8.757H49.635L51.192 4.5H72.63L71.1 8.757ZM70.335 10.872H48.87L47.322 15.12H68.76L70.335 10.872ZM68.013 17.217H46.557L45 21.465H66.42L68.013 17.217Z" fill="#009FDF"/>
<path d="M122.157 32.0849H126C126.549 32.154 127.107 32.0849 127.623 31.8836C128.138 31.6825 128.595 31.3557 128.952 30.9328C129.488 30.2407 129.754 29.3768 129.699 28.5029C129.731 27.9464 129.627 27.3904 129.395 26.8836C129.163 26.3768 128.81 25.9347 128.367 25.5959C127.648 25.1274 126.793 24.912 125.937 24.9839H122.112V32.0758L122.157 32.0849ZM117.09 36.3599V10.8719H133.677L132.21 15.1469H122.157V20.7899H126.252C129.564 20.7899 131.274 21.5819 132.462 22.5899C133.311 23.3449 133.978 24.2817 134.414 25.3304C134.851 26.3791 135.045 27.5128 134.982 28.6469C135.044 29.8631 134.803 31.0757 134.279 32.1755C133.756 33.2752 132.968 34.2276 131.985 34.9469C130.383 36.0539 128.718 36.3689 125.325 36.3689L117.09 36.3599ZM102.393 36.3599V15.1469H95.013V10.8719H115.488L114.021 15.1469H107.496V36.3869H102.384L102.393 36.3599ZM81.963 21.0598H84.87C85.4734 21.1102 86.081 21.0646 86.67 20.9248C87.2734 20.7299 87.7931 20.3366 88.1444 19.8088C88.4958 19.2809 88.6581 18.6497 88.605 18.0179C88.6877 17.39 88.5361 16.7538 88.1791 16.2307C87.8221 15.7077 87.2848 15.3347 86.67 15.1829C86.0366 15.0328 85.3853 14.9723 84.735 15.0029H82.035V21.0598H81.963ZM81.963 25.4698V32.1569H85.5C86.4624 32.262 87.4286 31.9947 88.2 31.4099C88.5625 31.0818 88.848 30.6777 89.0362 30.2265C89.2245 29.7754 89.3108 29.2882 89.289 28.7999C89.3079 28.0169 89.071 27.249 88.614 26.6129C87.867 25.6409 86.922 25.4609 85.347 25.4609H81.972L81.963 25.4698ZM90.135 22.7698V22.8598C91.0035 23.2123 91.8108 23.6982 92.529 24.2998C93.258 24.9029 93.8331 25.6699 94.2084 26.5381C94.5837 27.4062 94.7484 28.3509 94.689 29.2948C94.689 32.7868 92.844 35.3069 89.802 36.0448C88.5871 36.3451 87.335 36.4663 86.085 36.4049H76.905V10.8719H85.077C86.3772 10.8231 87.6782 10.944 88.947 11.2319C91.899 12.0239 93.834 14.0668 93.834 17.2888C93.8592 18.0527 93.7278 18.8136 93.4497 19.5254C93.1707 20.2372 92.7504 20.8847 92.214 21.4288C91.6425 22.0092 90.9603 22.4683 90.207 22.7788H90.135V22.7698Z" fill="#0A2973"/>
</g>
</svg>
