<svg width="20" height="20" viewBox="0 0 20 20" fill="none" xmlns="http://www.w3.org/2000/svg">
<g clip-path="url(#clip0_11_21085)">
<path d="M19.9608 14.4451C19.9042 13.9803 19.6561 13.5536 19.2801 13.2744C18.8 12.9181 18.1945 12.8432 17.6653 13.0301C17.2149 12.1753 16.492 11.4679 15.6707 11.0915C15.2657 9.38444 13.2209 8.49359 11.6872 9.38695C9.60829 8.21061 6.77412 8.81745 5.37064 10.7434C3.31834 10.4582 1.44637 12.1804 1.56931 14.251L1.48585 14.2503C0.703662 14.2285 0.0104039 14.917 0.0268999 15.6995V18.5511C0.0268999 19.3502 0.677003 20.0003 1.47612 20.0003H14.6019C15.5495 20.0003 16.4335 19.5774 17.0281 18.8399L19.581 15.745C19.879 15.3838 20.0174 14.91 19.9608 14.4451ZM2.73723 14.0874C2.71757 12.6717 4.12469 11.5877 5.48775 11.9579C5.73339 12.0211 5.99185 11.9195 6.12843 11.7057C7.1975 9.9518 9.6885 9.42009 11.3834 10.5707C11.594 10.7084 11.8689 10.6964 12.0668 10.5408C13.0006 9.78848 14.4467 10.3905 14.571 11.583C14.597 11.8083 14.7506 11.9983 14.9653 12.0711C15.7031 12.3212 16.3645 12.9668 16.7182 13.7602L15.383 15.2095L15.0997 15.5152C15.2202 14.4736 14.3817 13.5363 13.3324 13.543H10.8907C10.7305 13.543 10.5691 13.5073 10.4239 13.4398L9.4135 12.97C8.92801 12.7443 8.4114 12.6073 7.87809 12.5628C6.76779 12.47 5.6384 12.8486 4.77905 13.6014L4.01387 14.2717L2.74493 14.261C2.74009 14.2017 2.73723 14.1433 2.73723 14.0874ZM18.6764 14.9989L16.1213 18.0964C16.1198 18.0983 16.1182 18.1002 16.1167 18.102C15.7459 18.5631 15.1938 18.8276 14.602 18.8276H1.47612C1.32363 18.8276 1.1996 18.7036 1.1996 18.5511V15.6995C1.1996 15.5994 1.25076 15.5336 1.28125 15.5033C1.31155 15.4732 1.37698 15.423 1.47502 15.423H1.47694L4.22726 15.4463C4.37033 15.447 4.51039 15.3958 4.61859 15.301L5.55174 14.4836C6.17319 13.9392 6.98544 13.6651 7.78049 13.7314C8.17596 13.7645 8.55904 13.8661 8.9191 14.0335L9.92953 14.5033C10.2285 14.6423 10.5609 14.7158 10.8907 14.7158H13.3324C14.1355 14.7491 14.1349 15.8931 13.3324 15.9262H8.58257C7.80461 15.9572 7.80519 17.0682 8.58257 17.0989H14.975C15.1382 17.0989 15.2941 17.0309 15.405 16.9111L15.9354 16.3388C15.9417 16.3325 15.9484 16.3267 15.9545 16.3201L17.8215 14.2935C17.8222 14.2928 17.8228 14.292 17.8235 14.2913L17.8275 14.287C18.0241 14.0736 18.348 14.0431 18.581 14.2161C18.702 14.3058 18.7785 14.4376 18.7967 14.587C18.8149 14.7364 18.7722 14.8827 18.6764 14.9989Z" fill="#2F80ED"/>
<path d="M4.46563 8.03422C6.39276 8.06573 7.71971 5.83331 6.66514 4.23485L4.90661 1.32144C4.79899 1.14319 4.60394 1.03487 4.39676 1.03816C4.18857 1.04093 3.99746 1.15394 3.89469 1.33505L2.2313 4.26577C1.23412 5.9179 2.58393 8.06686 4.46563 8.03422ZM3.25119 4.84465L4.42021 2.78493L5.6612 4.84086C6.25099 5.72812 5.45918 6.87966 4.46567 6.86153C3.46767 6.88103 2.70221 5.73523 3.25119 4.84465Z" fill="#2F80ED"/>
<path d="M9.21569 7.02413C9.58251 7.02413 9.87991 6.72677 9.87991 6.35991C9.84492 5.47887 8.58634 5.4791 8.55151 6.35991C8.55147 6.72673 8.84883 7.02413 9.21569 7.02413Z" fill="#2F80ED"/>
<path d="M10.8409 3.53195C11.2078 3.53195 11.5052 3.23459 11.5052 2.86773C11.4702 1.98668 10.2116 1.98692 10.1768 2.86773C10.1767 3.23459 10.4741 3.53195 10.8409 3.53195Z" fill="#2F80ED"/>
<path d="M17.621 9.87891C17.2542 9.87891 16.9568 10.1763 16.9568 10.5431C16.9918 11.4242 18.2504 11.4239 18.2852 10.5431C18.2852 10.1763 17.9878 9.87891 17.621 9.87891Z" fill="#2F80ED"/>
<path d="M15.4789 5.39746C16.9708 5.39746 18.1846 4.18368 18.1846 2.69174C18.036 -0.897762 12.9213 -0.896745 12.7732 2.69178C12.7732 4.18372 13.987 5.39746 15.4789 5.39746ZM15.4789 1.15872C16.3242 1.15872 17.0119 1.84642 17.0119 2.69174C16.9277 4.72551 14.0298 4.72492 13.9459 2.69174C13.9459 1.84646 14.6336 1.15872 15.4789 1.15872Z" fill="#2F80ED"/>
</g>
<defs>
<clipPath id="clip0_11_21085">
<rect width="20" height="20" fill="white"/>
</clipPath>
</defs>
</svg>
