<svg width="180" height="45" viewBox="0 0 180 45" fill="none" xmlns="http://www.w3.org/2000/svg">
<g opacity="0.8">
<path d="M22.4662 5.61531C22.4662 6.60892 22.5472 6.83197 22.9731 7.17669C23.3787 7.48085 23.48 7.74446 23.48 8.45418C23.48 9.16388 23.4192 9.32615 23.1759 9.24497C22.9325 9.14363 22.8717 9.32615 22.8717 10.2386C22.8717 11.3336 22.8919 11.3539 23.9667 12.2866C24.575 12.7936 25.1631 13.2195 25.2848 13.2195C25.5686 13.2195 25.5889 11.07 25.305 10.8875C25.0414 10.7253 25.0414 9.16388 25.2848 9.16388C25.4065 9.16388 25.5484 9.26531 25.6092 9.36665C25.8728 9.81278 26.1161 9.30581 26.1161 8.29196L26.0959 7.23752L24.5953 5.96003C22.527 4.21615 22.4662 4.19587 22.4662 5.61531ZM28.9755 5.93971L27.333 7.35915V10.4819C27.333 12.2055 27.4141 13.6453 27.4952 13.7061C27.5966 13.7668 28.4077 13.1991 29.3202 12.4488L30.9829 11.0902V10.0156C30.9829 9.22472 30.9019 8.96108 30.6991 8.96108C30.5368 8.96108 30.3544 9.0422 30.2732 9.16388C30.2125 9.26522 29.888 9.54917 29.5636 9.77219L28.9552 10.198V9.32606C28.9755 8.53525 29.0566 8.39331 29.9691 7.66331C30.9829 6.87248 30.9829 6.8522 30.9829 5.6761C30.9829 5.02722 30.9019 4.5 30.8004 4.5C30.7193 4.5 29.888 5.14888 28.9755 5.93971ZM18.1471 9.71126C17.8834 9.95462 18.0051 15.3283 18.2687 15.7743C18.4107 16.0177 19.9517 17.4168 21.7159 18.8768C23.4598 20.3571 24.8995 21.6346 24.8995 21.6954C24.8995 21.8576 23.5612 22.9526 23.3787 22.9526C23.3178 22.9526 22.2229 22.0807 20.9453 21.006C19.4651 19.769 18.4918 19.0999 18.3092 19.181C18.066 19.2621 18.0051 19.7488 18.0051 21.6751V24.0476L18.9987 24.9804L19.9721 25.9334L19.0392 26.7446L18.1065 27.5557L18.0456 30.719C17.9848 32.767 18.0456 34.0039 18.1876 34.2878C18.5323 34.9164 25.3659 40.6145 25.7107 40.5333C26.1364 40.4724 26.2581 35.1597 25.8728 34.4298C25.7309 34.1661 24.1695 32.7467 22.4257 31.2664C20.6615 29.7862 19.2217 28.5087 19.2217 28.4276C19.2217 28.3465 19.6273 27.9409 20.1343 27.5151L21.0468 26.7648L23.1961 28.5695C24.3723 29.5429 25.4875 30.3539 25.6701 30.3539C25.9743 30.3539 26.0148 30.0701 26.0148 27.8598V25.3453L25.2239 24.6357L24.4331 23.9057L25.082 23.3785C25.4267 23.0945 25.812 22.5268 25.9134 22.1415C26.2175 21.1073 26.1567 16.4638 25.8526 15.8555C25.589 15.3283 18.8568 9.56933 18.4918 9.56933C18.3701 9.56933 18.2079 9.63017 18.1471 9.71126ZM31.2263 12.53C29.2999 14.1521 27.6372 15.7135 27.5155 15.9974C27.4141 16.261 27.333 17.6805 27.333 19.1405C27.333 21.5941 27.3532 21.7766 27.7385 21.8779C28.0832 21.9793 28.1441 22.1619 28.1441 23.2366C28.1441 24.0882 28.0224 24.7371 27.7385 25.2846C27.4141 25.9132 27.333 26.481 27.333 27.9409C27.333 29.989 27.4343 30.4554 27.8602 30.4554C28.3266 30.4554 28.2658 33.6389 27.7994 34.1661C27.4952 34.4703 27.4141 35.0178 27.3736 37.0862C27.2924 39.9251 27.3938 40.6551 27.8602 40.5536C28.3672 40.4523 34.9573 34.8759 35.221 34.3487C35.363 34.0445 35.4441 31.9153 35.4441 28.2248C35.4441 23.0743 35.4035 22.5471 35.0994 22.5471C34.7952 22.5471 34.7952 22.5268 35.0994 22.1821C35.4035 21.8577 35.4441 21.0871 35.4441 15.6933C35.4441 9.99521 35.4238 9.56942 35.0994 9.56942C34.8966 9.56942 33.1527 10.9077 31.2263 12.53ZM34.1463 17.9441C34.3896 18.9985 33.9637 19.7488 32.1793 21.2899C31.2466 22.101 30.2327 22.9526 29.9285 23.1757L29.3608 23.5813V20.9452L31.348 19.2216C32.4227 18.2686 33.4771 17.498 33.6596 17.498C33.8624 17.4777 34.0652 17.6805 34.1463 17.9441ZM34.2274 27.0082C34.2274 28.4073 33.8827 28.9345 31.7738 30.6987C30.6585 31.6112 29.6649 32.4021 29.5636 32.4426C29.4419 32.4831 29.3608 31.8342 29.3608 30.9217V29.3198L31.5102 27.5557C33.8624 25.609 34.2274 25.5482 34.2274 27.0082Z" fill="#E2251D"/>
<path d="M45.1161 13.3612C45.0552 13.4626 44.9133 13.929 44.7714 14.4359C44.6497 14.9429 44.5078 15.5106 44.4469 15.6931C44.3455 16.0378 44.6294 16.0581 48.6038 16.0581C50.956 16.0581 52.8824 16.0987 52.8824 16.1595C52.8824 16.2204 50.8749 19.5662 48.4213 23.5811L43.9602 30.8811V33.4969H56.2485L56.6135 32.3208C56.8163 31.6922 57.0394 31.0433 57.0799 30.9013C57.161 30.7189 56.2079 30.6581 52.6797 30.6581C49.1513 30.6581 48.1983 30.5972 48.2794 30.3944C48.32 30.2728 50.3072 26.9675 52.6593 23.0742L56.9379 15.977V13.2192H51.0777C47.8333 13.2192 45.1567 13.2801 45.1161 13.3612ZM59.2496 13.5843C57.5462 14.9429 58.3979 17.4573 60.5473 17.4776C61.8248 17.4776 62.6157 16.6665 62.6157 15.3484C62.6157 14.0304 61.8248 13.2193 60.5473 13.2193C60.0201 13.2193 59.4929 13.3612 59.2496 13.5843ZM110.512 23.277L110.572 33.3955L114.668 33.355C119.21 33.3347 120.346 33.1319 121.765 32.0978C123.652 30.7391 124.28 27.5961 123.144 25.2642C122.576 24.1084 121.725 23.3784 120.448 22.9323L119.778 22.7092L120.65 22.1415C122.232 21.1479 122.84 20.0326 122.84 18.2481C122.82 16.3014 121.705 14.6995 119.697 13.787C118.765 13.3815 118.318 13.3206 114.567 13.2598L110.471 13.1787L110.512 23.277ZM118.399 15.7742C119.495 16.4231 120.001 17.3356 120.001 18.6739C120.001 20.0326 119.514 20.9451 118.542 21.452C118.035 21.7156 117.304 21.7968 115.439 21.817L113.006 21.8372L112.944 18.7956C112.925 17.1329 112.944 15.6323 113.006 15.4904C113.188 15.0037 117.487 15.247 118.399 15.7742ZM119.333 24.4328C120.427 25.0208 120.893 25.9131 120.975 27.515C121.056 29.3198 120.65 30.1713 119.393 30.8C118.582 31.2258 118.197 31.2664 115.703 31.2664H112.904V23.9259L115.804 24.007C118.035 24.0678 118.825 24.1489 119.333 24.4328ZM151.33 13.3611C151.107 13.4017 150.722 13.4828 150.479 13.5437L150.013 13.6248V33.5171L151.188 33.4562L152.345 33.3954L152.445 29.4008L152.547 25.4264L155.792 29.4008L159.036 33.3954L160.435 33.4562C161.206 33.4968 161.895 33.436 161.996 33.3549C162.077 33.2738 160.638 31.4488 158.813 29.3399C156.968 27.2108 155.426 25.3655 155.366 25.2438C155.305 25.1019 156.46 23.6419 157.962 21.9994C161.692 17.8425 161.49 18.2886 159.705 18.2886H158.205L155.386 21.533L152.547 24.7977L152.486 18.9983C152.426 12.692 152.526 13.0975 151.33 13.3611ZM100.839 14.3751C100.616 14.4156 99.9467 14.5576 99.3788 14.6589L98.3042 14.8617V18.2886H96.6617L96.7229 19.4445L96.7841 20.6205L97.5338 20.6814L98.2844 20.7422L98.3447 26.055C98.4059 30.9824 98.4266 31.4285 98.8316 32.0774C99.7235 33.6185 101.549 34.1863 103.8 33.6185C104.51 33.4361 105.097 33.2536 105.138 33.213C105.178 33.1725 105.118 32.6858 104.996 32.118C104.773 31.1041 104.773 31.1041 104.165 31.3069C103.374 31.5705 102.218 31.3475 101.955 30.8608C101.833 30.6377 101.752 28.5086 101.752 25.6089V20.722H104.205L104.712 19.6067C104.976 18.9781 105.199 18.4306 105.199 18.3901C105.199 18.3292 104.429 18.2886 103.476 18.2886H101.752V16.2609C101.752 14.152 101.752 14.1723 100.839 14.3751ZM60.588 18.5118C60.0811 18.6131 59.4727 18.755 59.2294 18.8159L58.763 18.8969V33.4969H62.2102V25.8927C62.2102 17.3356 62.3927 18.1467 60.588 18.5118ZM65.9617 18.5725L64.7451 18.7955L64.6842 26.1563L64.6436 33.5171L66.3064 33.4562L67.9895 33.3954L68.0908 28.2855L68.1923 23.1755L68.7803 22.5672C69.4697 21.8575 70.5445 21.5736 71.3758 21.898C72.0045 22.1211 72.0045 22.1616 72.3289 20.2353C72.5722 18.8564 72.4709 18.6942 71.3758 18.6942C70.4431 18.6942 69.4901 19.1402 68.5167 20.0122L67.6853 20.7625V19.5255C67.6853 18.6536 67.6042 18.2886 67.442 18.3089C67.3 18.3291 66.6308 18.4306 65.9617 18.5725ZM75.5528 18.6536C74.8026 18.8565 74.1334 19.0795 74.0726 19.1403C73.9509 19.2417 73.3628 22.2022 73.4237 22.2833C73.4439 22.3036 74.1334 21.9792 74.9648 21.5736C76.1611 20.9856 76.6883 20.8436 77.6617 20.8233C79.2434 20.8233 79.6489 21.2492 79.6489 22.9525V24.1083L77.9861 24.2706C75.5122 24.4733 73.8901 25.0411 72.8762 26.055C70.5037 28.4477 71.3756 32.6858 74.4579 33.5983C76.1206 34.1052 77.4387 33.9836 79.3042 33.1927C79.5678 33.0913 79.6489 33.1521 79.6489 33.4766C79.6489 33.9024 79.73 33.9227 81.332 33.8619L82.9947 33.801V27.515C82.9947 21.533 82.9745 21.1883 82.5689 20.4178C82.3052 19.9311 81.778 19.3837 81.2103 19.0186C79.9733 18.2481 77.6009 18.1061 75.5528 18.6536ZM79.6489 28.2855C79.6489 29.8671 79.6084 30.0091 79.1014 30.4958C77.3778 32.1383 75.1879 31.4691 75.1879 29.2994C75.1879 28.5897 75.6137 27.231 75.857 27.2108C75.8773 27.2108 76.2626 27.0689 76.7087 26.9066C77.1547 26.7444 78.0064 26.6227 78.5945 26.6025H79.6489V28.2855ZM88.409 18.6131C86.7869 19.039 86.6246 19.1809 86.4827 20.1543C86.4218 20.6409 86.3003 21.4115 86.2191 21.8575L86.0974 22.7092L87.6588 21.9183C88.9363 21.2695 89.4432 21.1275 90.3959 21.1275C91.4309 21.1275 91.6334 21.1884 91.9979 21.6547C92.3021 22.0198 92.4245 22.4861 92.4245 23.135V24.0881L90.2951 24.3314C87.7805 24.6153 86.4218 25.1425 85.4486 26.1969C84.5563 27.1905 84.2522 28.1639 84.3536 29.8469C84.4955 32.3006 85.915 33.6389 88.6727 33.8416C89.8488 33.943 90.5381 33.8214 92.0798 33.1927C92.3426 33.0914 92.4245 33.1521 92.4245 33.4766C92.4245 33.8822 92.5253 33.9025 94.0463 33.9025H95.6681V27.6367C95.6681 23.7028 95.5871 21.1478 95.4458 20.7828C94.6745 18.6943 91.5929 17.7412 88.409 18.6131ZM92.4245 28.2045C92.4245 30.07 92.1203 30.6175 90.782 31.1447C89.1391 31.8138 87.9224 31.0028 87.9224 29.2792C87.9224 28.7317 88.0238 28.0828 88.1658 27.8394C88.5105 27.15 89.9096 26.6025 91.268 26.6025H92.4245V28.2045ZM129.188 18.5117C128.701 18.5928 127.93 18.8564 127.443 19.0591C126.612 19.4242 126.552 19.5053 126.348 20.6408C126.227 21.2897 126.146 21.8574 126.186 21.898C126.207 21.9183 126.734 21.675 127.362 21.3505C127.991 21.0261 128.984 20.6408 129.593 20.5191C131.925 19.9919 133.182 20.8436 133.182 22.9524V24.1286L131.418 24.2705C127.91 24.5543 125.841 25.5885 124.95 27.4744C123.773 30.0091 124.807 32.6452 127.281 33.4765C128.903 34.0241 131.479 33.5577 132.614 32.5437C132.959 32.2396 132.979 32.2599 132.979 32.9493V33.6996H135.413V27.2919C135.413 22.9727 135.332 20.7625 135.19 20.4583C134.256 18.6738 132.026 17.9439 129.188 18.5117ZM132.979 27.9813C132.979 29.9685 132.979 29.9685 132.33 30.6174C130.485 32.3816 127.849 32.2193 127.322 30.3133C127.038 29.2791 127.038 28.9749 127.424 28.0219C127.991 26.6227 129.207 26.0347 131.62 26.0143L132.979 25.9941V27.9813ZM138.19 18.532L137.237 18.7348L137.279 26.0753L137.339 33.3955H139.569L139.63 27.9003L139.671 22.3847L140.745 21.6547C142.55 20.4179 144.315 20.2151 145.105 21.1479C145.409 21.4926 145.47 22.2631 145.551 27.4745L145.653 33.3955H148.086V21.2289L147.579 20.357C146.302 18.1265 143.585 17.7818 140.908 19.5054L139.671 20.3164V19.3026C139.671 18.1873 139.732 18.2278 138.19 18.532Z" fill="#1D1D1B"/>
</g>
</svg>
